<?xml version="1.0" standalone="no"?><!DOCTYPE svg PUBLIC "-//W3C//DTD SVG 1.1//EN" "http://www.w3.org/Graphics/SVG/1.1/DTD/svg11.dtd"><svg class="icon" width="200px" height="200.00px" viewBox="0 0 1024 1024" version="1.1" xmlns="http://www.w3.org/2000/svg"><path d="M165.4 754.71m-81 0a81 81 0 1 0 162 0 81 81 0 1 0-162 0Z" fill="#FFAFAF" /><path d="M822.4 475.71m-81 0a81 81 0 1 0 162 0 81 81 0 1 0-162 0Z" fill="#FFAFAF" /><path d="M686.05 756.06m-196.65 0a196.65 196.65 0 1 0 393.3 0 196.65 196.65 0 1 0-393.3 0Z" fill="#FFAFAF" /><path d="M344.5 393.81m-269.1 0a269.1 269.1 0 1 0 538.2 0 269.1 269.1 0 1 0-538.2 0Z" fill="#FFAFAF" /><path d="M141.99 606.63m12 0l683.41 0q12 0 12 12l0 150.89q0 12-12 12l-683.41 0q-12 0-12-12l0-150.89q0-12 12-12Z" fill="#AFADAD" /><path d="M141.99 295.71m12 0l683.41 0q12 0 12 12l0 150.89q0 12-12 12l-683.41 0q-12 0-12-12l0-150.89q0-12 12-12Z" fill="#72C1E8" /><path d="M141.99 451.17m12 0l683.41 0q12 0 12 12l0 150.89q0 12-12 12l-683.41 0q-12 0-12-12l0-150.89q0-12 12-12Z" fill="#FF6E6E" /><path d="M980.47 461.19h-0.05c-24.75-5.71-35.34-28.72-38.28-36.55a1 1 0 0 0-1.79 0c-2.94 7.83-13.54 30.84-38.28 36.55h-0.09a1 1 0 0 0-0.23 1.81c10.48 4.92 36.92 19.94 39.32 47.18h0.35c2.37-27.41 28.76-42.31 39.27-47.19a1 1 0 0 0-0.22-1.8zM460.67 858.72h-0.05c-24.74-5.72-35.34-28.72-38.28-36.57a1 1 0 0 0-1.79 0C417.61 830 407 853 382.27 858.7h-0.09a1 1 0 0 0-0.23 1.81c10.48 4.92 36.93 20 39.32 47.18h0.35c2.37-27.4 28.76-42.3 39.28-47.18a1 1 0 0 0-0.23-1.79z" fill="#FFCD2C" /></svg>