<?xml version="1.0" standalone="no"?><!DOCTYPE svg PUBLIC "-//W3C//DTD SVG 1.1//EN" "http://www.w3.org/Graphics/SVG/1.1/DTD/svg11.dtd"><svg class="icon" width="200px" height="200.00px" viewBox="0 0 1024 1024" version="1.1" xmlns="http://www.w3.org/2000/svg"><path d="M175.4 719.23m-81 0a81 81 0 1 0 162 0 81 81 0 1 0-162 0Z" fill="#FFAFAF" /><path d="M832.4 440.23m-81 0a81 81 0 1 0 162 0 81 81 0 1 0-162 0Z" fill="#FFAFAF" /><path d="M696.05 711.58m-196.65 0a196.65 196.65 0 1 0 393.3 0 196.65 196.65 0 1 0-393.3 0Z" fill="#FFAFAF" /><path d="M354.5 349.33m-269.1 0a269.1 269.1 0 1 0 538.2 0 269.1 269.1 0 1 0-538.2 0Z" fill="#FFAFAF" /><path d="M835.44 846.61c-12.35 13.58-26.2 28-44.17 30.83-25.42 4-46.87-16.41-64-35.05q-94.9-103.23-194.56-201.95l80.21-80Q711.59 660 814.84 755c18.65 17.15 39 38.59 35.06 64-2.83 18-17.25 31.82-30.83 44.16" fill="#FF6E6E" /><path d="M521.27 489.05a861.56 861.56 0 0 0-61.39-254.66c-13.25-32.28-31.65-66.74-64.6-78.24-32.27-11.26-67.66 3.51-96.7 21.53a420.67 420.67 0 0 0-145.09 152.25c-11.89 21.38-22.15 45.55-18 69.65 5.07 29.15 29.82 50.6 54.86 66.35 68.39 43 192.18 73.44 272.76 79.28l35.94 9.47" fill="#F1DDD5" /><path d="M485.53 418.53c8.06-8.06 12.59-11.32 20-7.33A17.94 17.94 0 0 1 510 415l156.1 168.09c7.89 8.49 16.39 18.45 16.1 29.1-0.21 7.64-4.54 14.07-9.62 19.15-25.55 25.55-8.46 8.5-33.27 33.31l-3.43 3.24c-15.5 15.5-8.82 8.78-33.31 33.27-5.08 5.08-11.51 9.41-19.16 9.62-10.64 0.29-20.6-8.21-29.09-16.1L386.26 538.53a18.11 18.11 0 0 1-3.83-4.43c-4-7.4-3.64-9 7.33-20z" fill="#72C1E8" /><path d="M813.61 306.41h-0.05c-24.74-5.71-35.34-28.72-38.28-36.55a1 1 0 0 0-1.79 0c-2.94 7.83-13.53 30.84-38.28 36.55h-0.09a1 1 0 0 0-0.23 1.81c10.48 4.92 36.93 19.94 39.32 47.18h0.35c2.38-27.41 28.76-42.31 39.28-47.19a1 1 0 0 0-0.23-1.8zM227.67 628.11c-24.74-5.71-35.34-28.71-38.28-36.55a1 1 0 0 0-1.79 0c-2.94 7.84-13.54 30.84-38.28 36.55h-0.09a1 1 0 0 0-0.23 1.81c10.48 4.92 36.93 20 39.32 47.18h0.35c2.37-27.4 28.76-42.3 39.28-47.18a1 1 0 0 0-0.28-1.81z" fill="#FFCD2C" /></svg>