<?xml version="1.0" standalone="no"?><!DOCTYPE svg PUBLIC "-//W3C//DTD SVG 1.1//EN" "http://www.w3.org/Graphics/SVG/1.1/DTD/svg11.dtd"><svg class="icon" width="200px" height="200.00px" viewBox="0 0 1024 1024" version="1.1" xmlns="http://www.w3.org/2000/svg"><path d="M137.4 759.33m-81 0a81 81 0 1 0 162 0 81 81 0 1 0-162 0Z" fill="#FFAFAF" /><path d="M794.4 480.33m-81 0a81 81 0 1 0 162 0 81 81 0 1 0-162 0Z" fill="#FFAFAF" /><path d="M676.05 742.68m-196.65 0a196.65 196.65 0 1 0 393.3 0 196.65 196.65 0 1 0-393.3 0Z" fill="#FFAFAF" /><path d="M334.5 380.43m-269.1 0a269.1 269.1 0 1 0 538.2 0 269.1 269.1 0 1 0-538.2 0Z" fill="#FFAFAF" /><path d="M182.4 742.85s2.08 43.48 83.08 25.48 108 27 108 27l243-18s63-18 99-9 93.28 16.55 99.2 3.77-9.2-75.77-9.2-75.77l-576 9" fill="#5E361B" /><path d="M186.07 739.83h631.2c-21.45-137.3 14.4-279.26-35.11-413.91-31.85-86.63-99-159-181.91-196.1-31-13.86-65.7-22.94-98.58-16.22-32.88-6.72-67.61 2.36-98.58 16.22-82.9 37.08-150.09 109.47-181.91 196.1-49.51 134.65-13.66 276.61-35.11 413.91z" fill="#5E361B" /><path d="M346.34 439.7a2.87 2.87 0 0 0-1.35 4.53c12.66-14.83 29.54-26.68 48.68-30.38s40.52 1.7 53.51 16.24M377.81 402c-0.05 0.63-1.21 0.32-1.18-0.32s0.66-1 1.23-1.33a72 72 0 0 1 59.89-2.15M408.16 357.59a35.53 35.53 0 0 1 37.91 2.2c-0.37-4.86-4.48-8.79-9.05-10.47s-9.6-1.55-14.47-1.41c-8.08 0.24-17.14 0.91-22.46 7M392.14 445.32c-7.39 0.47-12.57 7.33-16.19 13.8-4.35 7.79-8.06 16.27-8.26 25.2-0.34 15.31 10.84 29.95 25.52 34.33s31.64-1.37 41.2-13.34S446 476 440 461.88c-2.19-5.23-5.48-10.15-10.15-13.37-6.48-4.47-14.79-5.2-22.66-5.06-8.45 0.15-17.94 1.7-22.86 8.57" fill="#FFEFE5" /><path d="M404.65 487.26c-2.9 2-0.89 7.37 2.63 7.79s6.64-2.89 7.13-6.4a6.41 6.41 0 0 0-0.31-3.28c-1.28-3.15-6-3.89-8.59-1.66s-2.83 6.42-1.06 9.33a11.41 11.41 0 0 0 8.53 5 5.81 5.81 0 0 0 3-0.28 6.12 6.12 0 0 0 2.84-3.57 14.79 14.79 0 0 0 0.67-10c-1.08-3.23-3.93-6-7.32-6.31a8.43 8.43 0 0 0-5.61 1.61c-4.7 3.4-4.87 11.42-0.32 15s12.31 1.57 14.52-3.79a15.7 15.7 0 0 0 0.68-7.65 14 14 0 0 0-2.31-7.16c-3.53-4.6-11.65-3.66-14.82 1.19s-1.54 11.87 2.81 15.69c2.54 2.23 6.19 3.53 9.36 2.36a9.72 9.72 0 0 0 5.15-5.24 13.71 13.71 0 0 0-1-13.65c-2.83-3.86-8.41-5.65-12.76-3.65s-6.58 7.92-4.18 12.06M502 505.88L496.58 521c-1.77 5-3.47 10.77-0.63 15.21 3.84 6 12.73 5.1 19.67 3.46M479.18 569.26c-2.16 4.23 1 9.31 4.75 12.23a28.66 28.66 0 0 0 43.4-10M390.49 544.58a111.57 111.57 0 0 0-6.92 19.42M416.8 549a19.07 19.07 0 0 1 0.77 9.65M657 439.7a2.87 2.87 0 0 1 1.35 4.53c-12.66-14.83-29.54-26.68-48.68-30.38s-40.52 1.7-53.51 16.24M625.53 402c0.05 0.63 1.21 0.32 1.18-0.32s-0.66-1-1.23-1.33a72 72 0 0 0-59.89-2.15M595.18 357.59a35.53 35.53 0 0 0-37.91 2.2c0.37-4.86 4.47-8.79 9.05-10.47s9.6-1.55 14.47-1.41c8.08 0.24 17.14 0.91 22.46 7M611.2 445.32c7.39 0.47 12.57 7.33 16.19 13.8 4.35 7.79 8.06 16.27 8.26 25.2 0.34 15.31-10.84 29.95-25.52 34.33s-31.64-1.37-41.21-13.34-11.54-29.3-5.61-43.43c2.19-5.23 5.48-10.15 10.15-13.37 6.48-4.47 14.79-5.2 22.66-5.06 8.45 0.15 17.94 1.7 22.86 8.57" fill="#FFEFE5" /><path d="M598.69 487.26c2.9 2 0.89 7.37-2.63 7.79s-6.64-2.89-7.13-6.4a6.41 6.41 0 0 1 0.31-3.28c1.28-3.15 6-3.89 8.59-1.66s2.83 6.42 1.06 9.33a11.41 11.41 0 0 1-8.54 5 5.79 5.79 0 0 1-3-0.28 6.08 6.08 0 0 1-2.84-3.57 14.79 14.79 0 0 1-0.67-10c1.08-3.23 3.93-6 7.32-6.31a8.43 8.43 0 0 1 5.61 1.61c4.7 3.4 4.87 11.42 0.32 15s-12.31 1.57-14.52-3.79a15.7 15.7 0 0 1-0.68-7.65 14 14 0 0 1 2.31-7.16c3.53-4.6 11.64-3.66 14.82 1.19s1.54 11.87-2.81 15.69c-2.54 2.23-6.19 3.53-9.36 2.36a9.72 9.72 0 0 1-5.15-5.24 13.71 13.71 0 0 1 1-13.65c2.83-3.86 8.41-5.65 12.76-3.65s6.58 7.92 4.18 12.06M612.85 544.58a111.57 111.57 0 0 1 6.92 19.42M586.54 549a19.07 19.07 0 0 0-0.77 9.65" fill="#FFEFE5" /><path d="M520.41 209.24c-31.13 70.3-94 120.54-154.54 167.91a23.47 23.47 0 0 1-0.45-17.17c-29.13 16.37-50.61 47.77-58.94 80.13-11.54 44.8-13.25 68-10.24 100.1l2.51-6.78c-0.92 25.12 11 49.57 28.58 67.55s40.33 39.69 63.82 48.63c13.09 5 12.82-0.3 23.37 8.93s16.18 25.17 9.65 37.57H564.4c-6.53-12.4-0.23-28.34 10.32-37.57S599.1 645 612.19 640c23.49-9 46.25-21 63.82-39s29.5-42.43 28.58-67.55l2.51 6.78c3-32.11 1.3-55.3-10.24-100.1-8.34-32.36-29.81-63.76-58.94-80.13a23.47 23.47 0 0 1-0.45 17.17C576.91 329.78 532.23 316 501.1 245.71" fill="#FFEFE5" /><path d="M518.29 208c-28.34 53.17-71 95.3-117 133.29-13 10.75-26.32 21.2-39.63 31.61l9.95 2.63a19.68 19.68 0 0 1-0.46-14c1.67-5.06-4.4-9.2-8.74-6.72-30 17.17-51.57 47.75-60.89 80.75-8.86 31.4-14.19 63.89-11.91 96.54 0.85 12 2.9 23.32 7.31 34.59a257.45 257.45 0 0 0 17.75 35.56c13.89 23.85 29.8 46.55 42.43 71.11 10.3 20 21.68 46.6 7.9 67.67-4.21 6.43 6.1 12.4 10.28 6 12.25-18.73 8.4-41.69 0.53-61.32-10-24.93-25.1-47.47-39.2-70.2-13.11-21.14-27.78-43.44-33.22-68.07-2.78-12.56-2.81-26.21-2.41-39 0.48-15.63 3-31 6.32-46.3 4.37-20 9.58-39.1 20.35-56.65 10.15-16.52 23.89-30.73 40.77-40.39l-8.75-6.72a30 30 0 0 0 0.46 20.33c1.73 4.46 6.25 5.52 9.95 2.63 47.44-37.14 96.23-75.45 129.78-126.34a216.8 216.8 0 0 0 22.8-45.1c0.94-2.55-3.1-4.21-4.37-1.84z" fill="#5E361B" /><path d="M358.14 422.05a5.91 5.91 0 0 0-4.93 4.08c-1 2.83 2.36 4.64 4.63 3.56 8.21-3.88 15.41-9.31 24-12.49a68.42 68.42 0 0 1 25.84-4.62 51.08 51.08 0 0 1 22.74 6.08 43.51 43.51 0 0 1 9.48 6.9c2.81 2.74 4.83 6.09 8.05 8.35 4.07 2.86 8.66-1.84 7.79-6-1.78-8.38-12.29-15.65-19.35-19.49a62.52 62.52 0 0 0-28-7.54 69.39 69.39 0 0 0-29.92 6.25c-9.12 4-19.07 10-25 18.23l4.31-1.13a5.23 5.23 0 0 1-1-0.66l0.76 1.86 1.08-1.48c0.84-0.47 0.53-2-0.52-1.92zM545.43 422.05a5.89 5.89 0 0 0-4.93 4.08c-1 2.83 2.36 4.64 4.63 3.56 8.21-3.88 15.41-9.31 24-12.49a68.42 68.42 0 0 1 25.87-4.62 51.08 51.08 0 0 1 22.74 6.08 43.51 43.51 0 0 1 9.48 6.9c2.81 2.74 4.83 6.09 8 8.35 4.07 2.86 8.66-1.84 7.79-6-1.78-8.38-12.29-15.65-19.35-19.49a62.52 62.52 0 0 0-28-7.54 69.39 69.39 0 0 0-29.92 6.25c-9.12 4-19.07 10-25 18.23l4.31-1.13a5 5 0 0 1-1-0.66l0.76 1.86L546 424c0.84-0.47 0.53-2-0.52-1.92zM395.65 361.06c12.22-4.21 23.53-3.13 34.19 4.45 4.68 3.32 9.22-2.16 8.59-6.6-1.83-12.68-15.51-16.43-26.41-16.34-9.3 0.07-25.21 0.3-29.95 10.23-2.34 4.9 2.45 10.16 7.5 7.5 2.92-1.53 5.05-3.61 8.33-4.5a46.49 46.49 0 0 1 10.65-1.25c6.5-0.22 17.31-1.1 18.61 7.46l8.58-6.59c-12.39-8.66-30.91-8.59-42.91 0.78-2.31 1.8 0.19 5.77 2.82 4.86z" fill="#141E3D" /><path d="M395.66 445.32c-7.4 0.47-12.58 7.33-16.19 13.8-4.36 7.79-8.07 16.27-8.27 25.2-0.34 15.31 10.84 29.95 25.52 34.33s31.64-1.37 41.21-13.34 11.54-29.3 5.62-43.43c-2.2-5.23-5.49-10.15-10.16-13.37-6.48-4.47-14.79-5.2-22.65-5.06-8.46 0.15-17.95 1.7-22.87 8.57" fill="#B2C8DD" /><path d="M392.09 443.11c-8.58 0.54-14.21 6.06-18.89 12.81-6.1 8.79-11.28 19.61-11.05 30.54 0.38 18.41 14.83 35.28 32.91 38.74 18.63 3.57 38.44-5.39 47.86-21.94s8.62-40.16-4.33-54.84c-7.57-8.59-18.86-10.94-29.85-10.94-10.27 0-21.9 1.74-28.65 10.33-4.68 6 3.69 14.44 8.42 8.42 4.22-5.37 10.72-6.54 17.24-6.79 7-0.27 15.19-0.13 21.07 4.21 11.35 8.36 12.67 26.58 8.09 38.81a34 34 0 0 1-31.19 21.71c-13.64 0.17-25.52-9.25-29.43-22.2-2.63-8.72-0.49-17.67 2.92-25.86 2.94-7.08 6.93-17.17 15.46-18.67 2.44-0.43 1.89-4.48-0.58-4.33z" fill="#141E3D" /><path d="M403.58 485.13c-10.6-1-15 12-10.86 19.94 4.75 9.23 16.35 11.69 25 6.4 9.49-5.76 13.4-19.14 7.54-28.77-6.42-10.55-21.21-12.84-30.78-5.44-9.16 7.08-11.12 20.61-5.35 30.48 5.65 9.64 19.17 15.81 30.09 12.34 23.9-7.6 20.25-47.15-3.78-51.9a25.15 25.15 0 0 0-28.19 15.09c-4 9.52-2.16 21.74 5.59 29a26.22 26.22 0 0 0 28.47 4.73c10-4.22 15.63-13.72 15.85-24.45 0.21-10.26-3.76-21.73-13.32-26.77-8.54-4.51-19.64-4.18-27.54 1.56-18.73 13.66-12.51 44.16 9.7 50.31 28.85 8 43.31-33.38 21.79-50-8.89-6.87-22-8.59-31.47-1.76-11.16 8-13.94 21.35-8.17 33.56 3.73 7.91 15.7 10.56 22.81 6 8.13-5.24 10-14.35 6-22.81 1.39 2.95 1 5.15 0.46 8-0.54 1-0.59 1.16-0.14 0.35q1.75-2.85-3.17 2.95a8 8 0 0 1-3.62 0.87c-0.74 0-4-1.51-2.82-0.78 1.61 1-1.47-1.26-1.79-1.8-0.43-0.72-0.6-4.1-0.71-2.25-0.09 1.51 1.56-2.28-0.19 0.52 0.92-1.47 1.6-3.05 3.31-4 4.67-2.71 5.19 0.17 9 0.42 0.8 0.79 0.64 0.64-0.47-0.46l1 1.22c1.12 3.15-0.11-1 0.26 1.17q0.15 1.68 0.12 0.24c0-1.28 0-0.88-0.09 1.21-0.81 2.19-2.35 3.58-4.11 5.16 1.73-1.56-0.65 0.22-1.91 0.4s-4.44-1.14-2.16 0c-2-1-4.86-2.2-5.86-4.42-0.25-0.55-0.42-3-0.37-1.19a20.34 20.34 0 0 1 0.09 2.34l0.23-1.36c1-1.19 1.29-2.67 2.67-3.72 0.67-0.51 4.18-1.7 1.55-1.08 4-0.94 7 0.54 9 4 1.24 2.56 1.53 2.87 0.89 0.94l0.37 2a6.66 6.66 0 0 1-1.62 4.43c-3.52 4.11-11.43 4.2-14-1.06-0.29-0.6-0.53-3.88-0.57-1.94s0.23-0.77 0.61-1.47l12-5c-1.63-0.47-1.89-0.53-0.77-0.17 1 1.67 3.58 2.26 4.18 4.65v4.92l-4.69 6c-2.11 1.37-9.54 0.86-11.22-1.19l-3.86-6.63a14.64 14.64 0 0 0 1.32-4q2-3.12 6.6-0.07 9.39 3.17 4.24-1.74a4.78 4.78 0 0 1 1.41 3.72c-0.28-4.94-3.7-8.08-8.53-8.53zM499.58 504.51c-3.9 5.23-6.61 12.13-8.93 18.22-2.11 5.56-2.7 11.65 0.66 16.87 5.06 7.86 20.83 10.51 27.24 3.06 1.57-1.83 1.82-5.44-0.86-6.62-3.55-1.57-6.13-1.19-9.9-1-2.9 0.14-6.51 0.09-7.68-3.1-1.4-3.85 0.94-9.38 1.91-13.09 1.13-4.26 2.43-8.53 2.62-13 0.13-2.95-3.6-3.34-5.06-1.37zM468.88 574.93c-10.23 18.22 18.5 29.59 32.07 30.79 18.07 1.6 37.73-7.24 46.28-23.64 3.28-6.31-5.65-11.52-9.52-5.56a39.56 39.56 0 0 1-31.05 17.84 45.28 45.28 0 0 1-19.3-3.15c-4.77-2-15.76-7.27-13.21-14.06 1.16-3.09-3.69-5-5.27-2.22zM387.54 542.89A47.67 47.67 0 0 0 381 554c-1.61 3.85-4 8.42-1.39 12.29a4.69 4.69 0 0 0 6.25 1.64c3.89-2 4.19-6.61 5.19-10.44 1-4 1.83-8 2.66-12s-3.85-5.55-6.13-2.58z" fill="#141E3D" /><path d="M498.79 246.35c8.72 24.09 21.95 46 40.27 64 16.81 16.56 36.42 29.82 55.75 43.2 13 9 25.92 18.1 38.39 27.82 3.7 2.88 8.22 1.84 9.95-2.63a29.9 29.9 0 0 0 0.45-20.33l-8.74 6.72c30.65 17.54 49.28 48.66 57.63 82.22 7.66 30.77 11.83 61.19 8.6 92.87-2.43 23.83-16.67 46.22-28.81 66.2-14.06 23.13-29.63 45.62-40.93 70.29-10 21.88-17.64 48.52-3.35 70.37 4.17 6.39 14.49 0.43 10.28-6-11.91-18.2-4.79-40.72 3.58-58.86 11.56-25 27.45-47.85 41.67-71.38 12.71-21 26.33-43.92 29.27-68.77 3.65-30.91-0.13-61.45-7.29-91.58-4.7-19.78-11.16-38.57-22.56-55.57-10.91-16.27-25-30.31-42.09-40.06-4.32-2.48-10.4 1.66-8.74 6.72a19.67 19.67 0 0 1-0.45 14l10-2.63c-20.47-16-42.16-30.08-63.34-45-18.52-13.07-36.08-27.35-50.35-45.1-9.48-11.8-17.61-25-24.77-38.3-1.26-2.34-5.3-0.74-4.37 1.85z" fill="#5E361B" /><path d="M605.79 355.54c-12-9.37-30.53-9.45-42.92-0.79l8.58 6.6c1.31-8.57 12.09-7.69 18.61-7.46A48.29 48.29 0 0 1 600 355c3.62 0.89 5.84 3 9 4.67 5.05 2.66 9.85-2.59 7.5-7.5-4.74-9.93-20.65-10.16-29.95-10.23-10.9-0.09-24.58 3.66-26.4 16.34-0.64 4.42 3.92 9.91 8.58 6.6 10.66-7.58 22-8.65 34.19-4.45 2.63 0.91 5.13-3.06 2.83-4.85z" fill="#141E3D" /><path d="M612.08 445.32c7.39 0.47 12.57 7.33 16.19 13.8 4.35 7.79 8.07 16.27 8.26 25.2 0.34 15.31-10.84 29.95-25.52 34.33s-31.64-1.37-41.2-13.34-11.55-29.3-5.62-43.43c2.19-5.23 5.48-10.15 10.15-13.37 6.48-4.47 14.79-5.2 22.66-5.06 8.45 0.15 17.94 1.7 22.87 8.57" fill="#B2C8DD" /><path d="M610.55 447.44c7.38 1.29 11.27 9.12 14.05 15.34 3.4 7.61 6.39 15.92 5.38 24.4-1.54 12.95-12.09 24.38-25 26.6-13.17 2.27-27.25-4.46-34-15.87-7.12-12-7.19-29.23 1.59-40.46 5.34-6.82 13.74-8.07 21.91-8.06 7.38 0 15.37 0.64 20.24 6.84 4.73 6 13.1-2.46 8.41-8.42-5.79-7.38-15.27-9.66-24.22-10.21-9.86-0.59-20.87 0.3-29.13 6.22-16 11.48-19.32 35.83-12.39 53.22 7.05 17.72 25 29.94 44.25 29 18.39-0.92 35.36-14.71 38.75-33.1 2.14-11.59-1.69-22.92-7.66-32.8-5-8.27-11.24-16.35-21.59-17-2.45-0.15-3 3.9-0.59 4.33z" fill="#141E3D" /><path d="M601.24 493.66a4.81 4.81 0 0 1 1.41-3.72q-5.14 4.92 4.24 1.74 4.62-3.06 6.6 0.07a14.64 14.64 0 0 0 1.32 4l-3.81 6.64c-6.27 7.64-18.64-2.16-15.87-9.69a10.9 10.9 0 0 1 3.53-4.44c1.54-0.48 1.74-0.55 0.59-0.23q-4.17 0.9 5.27 2.71c7.51 3.15 5.2 0.86 6.61 4.83-0.7-1.95 0.59-1.72-0.31 0.25-2.42 5.33-9.37 6.46-13.72 2.62a6.79 6.79 0 0 1-2.06-4.15c-0.19-1.46 1.06-4.06-0.09-1.81 2.24-4.4 5-7.33 10.18-6.1-2.11-0.5-0.08 0 0.77 0.46a8 8 0 0 1 3.11 3.59c1.08 2.56-0.36 1.78 0.6 0.55l0.13-1.55a2.37 2.37 0 0 1-0.44 2c-0.73 1.61-2.14 2.26-3.61 3.12q-4 1.9-1.17 1l-2.17 0.42-2.15-0.26q-3-1.49-1.33-0.56 1.78 1.14-1.28-1.49a4.64 4.64 0 0 1-2.33-3.38c-0.4-1-0.08-2.8-0.08-0.55 0.35-2 0.36-2.39 0-1.16-0.28 0.9-0.26 0.85 0.07-0.14 0.88-1 2.22-2.38 0.33-1.06 2.39-1.67 4.44-2.29 7.36-1.49s4 2.22 5.44 4.64c-0.93-1.51 0-1.47-0.2 0.2 0.49-3.4-0.15 0.27-0.4 0.85-0.58 1.38-1.57 1.92-2.66 2.8 1.93-1.56 0.12 0-1.32 0.31a6.85 6.85 0 0 1-4.55-0.72c-0.43-0.26-4.59-5.49-2.87-2.43-1.71-3-1.61-5.43 0-8.9-3.72 7.87-2.46 18.35 6 22.81 7.4 3.91 18.83 2.44 22.8-6 4.87-10.32 3.88-21.52-4-30.11s-20.57-9.66-30.59-4.92c-20 9.42-21 40.29-1.72 51.16 10.26 5.78 23.23 2.61 31.18-5.58a30.16 30.16 0 0 0 7.27-28.59c-5.83-21.53-38.28-25.77-47.81-4.88-4.21 9.21-5 21.61 0.61 30.46a26.7 26.7 0 0 0 26.14 12c23.63-3.18 29.06-34.64 10-47.49-9.63-6.51-23.48-4.49-31.24 4-8.39 9.14-9.23 22.61-3.77 33.48 12.1 24.13 49.18 8.11 45.87-16.58-1.78-13.22-14.5-22.91-27.77-18.45a20.5 20.5 0 0 0-9.59 32.2c7.22 9.44 22.68 11.75 29.79 0.75 2.92-4.51 3.93-10.45 1.14-15.32-2.2-3.86-6.38-6.83-11-6.39-4.8 0.45-8.25 3.55-8.53 8.53zM609.56 545.47c0.82 4.06 1.61 8 2.66 12 1 3.83 1.3 8.47 5.18 10.44a4.7 4.7 0 0 0 6.25-1.64c2.6-3.89 0.23-8.42-1.39-12.29a47.19 47.19 0 0 0-6.58-11.12c-2.26-2.94-6.92-1.35-6.12 2.58z" fill="#141E3D" /><path d="M391.92 546.47a9.74 9.74 0 0 0-14.4 5.2c-2.12 7 4.67 14 11.64 13.16 3.43-0.42 7-3.42 5.6-7.36-5-14.13-28.28-13.32-27.59 3.44 0.27 6.68 5.27 13.1 12.15 13.72 7.17 0.64 13.18-5.14 14.22-12 2.74-18-26.6-21-34.6-8.25-9.71 15.45 12.48 29 26.11 25.11a15.18 15.18 0 0 0 10.82-17.19c-1.24-7.95-7.51-13.8-15.15-15.73-7.39-1.87-18.23-1.21-24.07 4.22-5.4 5-6 13.08-3 19.55 3.5 7.55 11.21 11.27 19.13 12.34 8.08 1.09 17.81 0.88 25-3.41s11.36-12.65 8.39-20.75c-2.79-7.61-10.39-12.41-17.53-15.4-14.64-6.12-35.22-2.26-38.04 16.05-2.79 18.08 17.84 24.41 32.07 24 8.44-0.26 17.12-2.93 22.42-9.86 4.24-5.55 6-13.18 3.29-19.78-3.24-7.87-11.87-11.19-19.48-13.46s-16.27-3.33-23.95-0.81a25.52 25.52 0 0 0-14.83 35.31c6.88 14.39 27.4 17.52 41.7 16 7.25-0.77 14.34-3.39 18.77-9.48 4.78-6.57 5-15.36 1.75-22.65-6.62-15.08-26.72-24.17-42.5-20.62-14.87 3.33-25.61 21.32-16.41 35 8.21 12.23 27.34 16.23 41 13.57 14.74-2.86 24.41-16.82 19.94-31.56-4.77-15.74-20.41-23.52-36.11-20.72-8.29 1.48-15.66 5.65-22 11.07-5.83 5 2.62 13.38 8.42 8.42 6.9-5.91 16.55-9.89 25.69-7.62a17.89 17.89 0 0 1 13.16 14.74c2.34 18.23-24.13 15.75-34.12 10.44-7.73-4.11-10.18-12.26-3.14-18.59 6.87-6.18 17.62-3.74 24.87 0.39 6.62 3.77 15.62 12.83 9.94 21-4.14 6-14 5.2-20.25 4.55-7.89-0.81-18.46-2.59-20.87-11.49-1.84-6.81 1.38-14 8.16-16.35 7.91-2.77 18.62 0 25.7 4 8.65 4.82 1.43 13.95-5.48 15.78s-18.86 1.5-24.18-4c-6.47-6.64 3.4-14.38 9.87-14.59 5.65-0.18 22.52 4.68 21.17 12.82-1.42 8.53-18.75 7.29-24.52 5.4-3.4-1.12-7.81-4.22-7-8.48 0.87-4.46 8.83-4.39 12.32-3.91 3.66 0.5 9.24 3.27 8.12 7.93-0.87 3.6-5.74 2.7-8.35 1.84-2.94-1-10.47-4.46-5.67-7.92 2-1.44 11.11-2.09 11.79 0.94 0.62 2.77-3.41 2.86-3-0.17 0.33-2.34 3.92-1.75 4.63 0.2l4.05-7.15c-2.1 0.83-0.52-1.45 1.64-0.6 3.79 1.49 5.84-4.32 2.67-6.34zM629.63 546.47a9.74 9.74 0 0 0-14.4 5.2c-2.12 7 4.67 14 11.64 13.16 3.44-0.42 7-3.42 5.61-7.36-5-14.13-28.29-13.32-27.6 3.44 0.27 6.68 5.27 13.1 12.15 13.72 7.17 0.64 13.18-5.14 14.22-12 2.74-18-26.6-21-34.6-8.25-9.71 15.45 12.48 29 26.12 25.11a15.18 15.18 0 0 0 10.81-17.19c-1.24-7.95-7.51-13.8-15.15-15.73-7.39-1.87-18.23-1.21-24.07 4.22-5.4 5-6 13.08-3 19.55 3.49 7.55 11.2 11.27 19.12 12.34 8.08 1.09 17.81 0.88 25-3.41s11.36-12.65 8.39-20.75c-2.79-7.61-10.39-12.41-17.53-15.4-14.66-6.14-35.25-2.25-38.07 16.06-2.79 18.08 17.84 24.41 32.07 24 8.44-0.26 17.12-2.93 22.42-9.86 4.24-5.55 6-13.18 3.29-19.78-3.24-7.87-11.87-11.19-19.48-13.46s-16.27-3.33-24-0.81a25.53 25.53 0 0 0-14.83 35.31c6.88 14.39 27.4 17.52 41.7 16 7.25-0.77 14.34-3.39 18.77-9.48 4.78-6.57 5-15.36 1.75-22.65-6.62-15.08-26.72-24.17-42.5-20.62-14.87 3.33-25.61 21.32-16.4 35 8.2 12.23 27.33 16.23 41 13.57 14.74-2.86 24.41-16.82 19.94-31.56-4.77-15.74-20.41-23.52-36.11-20.72-8.28 1.48-15.66 5.65-22 11.07-5.83 5 2.62 13.38 8.42 8.42 6.9-5.91 16.55-9.89 25.69-7.62a17.89 17.89 0 0 1 13.16 14.74c2.34 18.23-24.13 15.75-34.12 10.44-7.73-4.11-10.18-12.26-3.14-18.59 6.87-6.18 17.62-3.74 24.87 0.39 6.62 3.77 15.62 12.83 9.94 21-4.14 6-14 5.2-20.25 4.55-7.89-0.81-18.46-2.59-20.87-11.49-1.84-6.81 1.38-14 8.16-16.35 7.91-2.77 18.62 0 25.7 4 8.65 4.82 1.43 13.95-5.48 15.78s-18.85 1.5-24.18-4c-6.47-6.64 3.41-14.38 9.87-14.59 5.65-0.18 22.53 4.68 21.17 12.82-1.42 8.53-18.75 7.29-24.52 5.4-3.4-1.12-7.81-4.22-7-8.48 0.87-4.46 8.83-4.39 12.32-3.91 3.67 0.5 9.24 3.27 8.12 7.93-0.87 3.6-5.74 2.7-8.35 1.84-2.94-1-10.46-4.46-5.67-7.92 2-1.44 11.11-2.09 11.79 0.94 0.62 2.77-3.41 2.86-3-0.17 0.33-2.34 3.92-1.75 4.63 0.2l4.06-7.15c-2.11 0.83-0.53-1.45 1.63-0.6 3.79 1.49 5.84-4.32 2.67-6.34z" fill="#EE8179" /><path d="M592.12 473.36c-4.59-3.53-10.54 2.53-9 7.36 1.58 5.13 8.09 6.95 12.29 3.82a9.34 9.34 0 0 0 3.58-6 7.36 7.36 0 0 0-0.45-4.83 7.27 7.27 0 0 0-2.88-2.7c-5.71-3.12-13.42 2-11.8 8.58a5.39 5.39 0 0 0 4.48 3.87c1.91 0.25 4.54-0.63 5.37-2.58 0.08-0.17 0.15-0.35 0.24-0.53l0.56-1.32-0.33 0.77c0.33-0.64-0.2 0.24-0.33 0.39 0.61-0.7-0.76 0.62-0.25 0.21 0.13-0.11 0.87-0.39 0.05-0.07s0.4 0.13-0.46 0.1c-1.07 0 0.53 0.3-0.47 0-0.19-0.06-1.36-0.57-0.74-0.15l-2.2-2.87c0.33 0.94 0.11 0.72 0.24-0.11-0.16 0.5-0.13 0.52 0.08 0.06a5.17 5.17 0 0 1-0.39 0.68 0.89 0.89 0 0 1 0.48-0.51c-0.47 0.27-0.45 0.27 0.06 0 0.58 0 0.62-0.05 0.11 0s-0.46 0 0.1 0c-0.46-0.15-0.44-0.14 0.05 0 0.37 0.34 0.38 0.35 0 0a1.24 1.24 0 0 1 0.38 0.64q0.07 0.72 0 0a0.88 0.88 0 0 1-0.13 0.59c0.22-0.37 0.23-0.43 0-0.17-0.48 0.1 0.52 0-0.12 0 3-0.13 3.56-3.58 1.42-5.24zM608.22 489.27a3.6 3.6 0 0 0-5.18 0l1.41-0.83a3.77 3.77 0 0 0-2.84 3.93 3.92 3.92 0 0 0 1.53 3 3.84 3.84 0 0 0 3.37 0.7 5.24 5.24 0 0 0 3.8-5.09 5.46 5.46 0 0 0-1.47-3.68 6.06 6.06 0 0 0-4-1.45l1.18 0.16a9.52 9.52 0 0 0-2.32-0.3 4.85 4.85 0 0 0-2.87 1 4.35 4.35 0 0 0-1.69 2.46 5.79 5.79 0 0 0 0.52 4.09 5.33 5.33 0 0 0 2.62 2.32 5.64 5.64 0 0 0 6.29-1.17A5.14 5.14 0 0 0 610 491a5 5 0 0 0-1.45-3.49 5 5 0 0 0-3.5-1.45 4.84 4.84 0 0 0-3.49 1.45 0.75 0.75 0 0 1-0.16 0.15l1-0.78-0.09 0.06 1.18-0.5a0.8 0.8 0 0 1-0.21 0.05l1.31-0.18h-0.22l1.31 0.18a2.8 2.8 0 0 1-0.41-0.13l1.16 0.49a0.58 0.58 0 0 1-0.18-0.11l1 0.76-0.08-0.07 0.76 1a0.42 0.42 0 0 1-0.11-0.18l0.48 1.14v-0.1l-2.18 5.34 0.81-0.39-1.06 0.45 0.18-0.05-1.18 0.16a6.6 6.6 0 0 1 0.77 0l-1.17-0.15h0.19l-2.6-2a1.68 1.68 0 0 1 0.21 0.37l-0.44-1a4.72 4.72 0 0 1 0.13 0.54l-0.15-1.13a2 2 0 0 1 0 0.42l0.15-1.1a3.32 3.32 0 0 1-0.15 0.64l3.73-2.84h-0.09l1 0.13h-0.09l0.9 0.37-0.08-0.05 0.74 0.58a5.71 5.71 0 0 0-1-0.74l1.47 3.61c0.09-0.42-0.09-0.21-0.56 0.63a1.89 1.89 0 0 1-2.39 1 2.94 2.94 0 0 0 3.23-1.32 3 3 0 0 0-0.44-3.47zM398.94 476.81a13.65 13.65 0 0 0-0.79 3.58 3.2 3.2 0 0 0 2.36 3.09c1.17 0.21 2.35 0.42 3.53 0.61a4 4 0 0 0 4.91-3.74c0.15-1.86 0.6-4-0.4-5.65a6.53 6.53 0 0 0-5.24-3 7.18 7.18 0 0 0-7.59 6.75c-0.22 4.18 3.43 7.08 7.28 7.41a7.3 7.3 0 0 0 7.73-7c0.19-4.79-4.49-9.26-9.31-7.83a5.15 5.15 0 0 0-3.72 4.88c0.1 2.11 1.49 4.45 3.72 4.88a1.8 1.8 0 0 1 0.4 0.1c-1.28-0.54-1.16-0.48 0.39 0.17-0.92-0.43-1.14-0.52-0.68-0.28 0.3 0.2 0.24 0.15-0.19-0.16s-0.48-0.37-0.22-0.12c-0.57-0.79-0.71-1-0.43-0.53 0.41 0.7-0.4-1.43-0.16-0.25l-0.18-1.38a4.22 4.22 0 0 1 0 0.62l0.18-1.38c-0.07 0.56-0.34 0.73 0.29-0.43l-0.11 0.18a2.51 2.51 0 0 1 0.95-1c0.41-0.29 0.51-0.37 0.31-0.24-0.36 0.22-0.08 0.11 0.82-0.32l-0.53 0.14 1.36-0.19a3.66 3.66 0 0 1-0.74 0l1.36 0.18c-0.19 0-0.37-0.1-0.55-0.12 0.92 0.42 1.15 0.52 0.7 0.3-0.28-0.18-0.21-0.12 0.21 0.19a3.23 3.23 0 0 1 0.76 0.85c-0.17-0.3 0.41 1.45 0.23 0.44l0.18 1.34a2.18 2.18 0 0 1 0-0.57l-0.18 1.34c0.17-0.74-0.51 1-0.29 0.6 0.38-0.7-0.31 0.46-0.42 0.47s0.87-0.73-0.07 0c-0.74 0.57-0.18 0.17 0 0.06 0.48-0.34-0.57 0.24-0.62 0.26 0.69-0.24-1 0.06-0.61 0s-1.24-0.34-0.6-0.09c-0.29-0.12-1.05-0.58-0.44-0.11l-2-2.64c0.27 1.06 0.53 2.12 0.81 3.19l2.65-4.81c-1.18 0.21-2.36 0.45-3.53 0.69l3.94 2.24a10.18 10.18 0 0 0-0.93-2.72c-0.9-1.56-3.78-1.89-4.58 0zM409.28 491.93a3.71 3.71 0 0 0 0.62 2c0.16 0.23 0.39 0.43 0.53 0.67l-0.36-0.48 0.49 0.64a4.21 4.21 0 0 0 1.68 1l-1.95-1.5 0.08 0.11a3.77 3.77 0 0 0 4.15 1.69 5 5 0 0 0 3.58-4.89 5.27 5.27 0 0 0-0.82-2.76 4.68 4.68 0 0 0-2.66-2.06 5.54 5.54 0 0 0-2.56 0l1.13-0.15h-0.09l2.17 0.59a4.4 4.4 0 0 0-4.45 0 5.63 5.63 0 0 0-2.26 2.63 5.16 5.16 0 0 0-0.47 2 4.69 4.69 0 0 0 0.21 1.62 5 5 0 0 0 3.34 3.34 4.86 4.86 0 0 0 6.06-4.62 4.88 4.88 0 0 0-0.66-2.41 4.67 4.67 0 0 0-1.71-1.71l-0.09-0.06 1 0.74-0.07-0.07 0.74 1a0.42 0.42 0 0 1-0.11-0.18l0.46 1.11-0.06-0.2 0.17 1.22a0.5 0.5 0 0 1 0-0.21l-0.16 1.2a1 1 0 0 1 0.09-0.31l-0.45 1.06a4.53 4.53 0 0 0 0.58-1.74 4.06 4.06 0 0 0-0.1-1.8l-0.43 3.32v-0.09l-1.52 1.53a0.54 0.54 0 0 1 0.18-0.11l-1 0.43h0.11-2.23 0.11l-1-0.42a1.64 1.64 0 0 1 0.29 0.16l-0.83-0.64 0.16 0.16-0.64-0.82a1.48 1.48 0 0 1 0.23 0.38l-0.4-0.95a3.18 3.18 0 0 1 0.08 0.33l-0.14-1v0.33l0.13-1a0.83 0.83 0 0 1-0.06 0.21l0.39-0.91a1.28 1.28 0 0 1-0.11 0.2l0.59-0.76a4.23 4.23 0 0 0-1.21 2.08l2.27-2.28a9.85 9.85 0 0 0-1.12 0.47l1.54-0.42h-0.32l0.78 0.11-0.21-0.05a1.87 1.87 0 0 1 0.85 0.49 2.67 2.67 0 0 0-2.87-0.54 2.59 2.59 0 0 0-1.61 2.4z" fill="#FFFFFF" /><path d="M588.19 755.74s-163.82 14.19-173.67-19.3 94.58-86.83 94.58-86.83l60.16 50.86" fill="#FFEFE5" /><path d="M387.15 715.94c22.18 37.88 72.06 56.94 113.85 43.5-9.56 12.53-11.4 29.13-17.27 43.76-10.31 25.67-34.85 45.5-62.35 48.61s-56.57-11.51-69.13-36.17a65.66 65.66 0 0 1-3.83-49.64c5.52-16.82 17.64-30.62 30.58-42.69M616.3 715.94c-22.17 37.88-72.06 56.94-113.84 43.5 9.54 12.56 11.39 29.13 17.26 43.76 10.32 25.67 34.86 45.5 62.35 48.61s56.57-11.51 69.14-36.17A65.61 65.61 0 0 0 655 766c-5.52-16.82-17.64-30.62-30.58-42.69" fill="#FFCD2C" /><path d="M297.15 533c-3.82 18.12 3.88 39 13.43 54.2 10.59 16.82 26.16 31.37 41.19 44.21a156.9 156.9 0 0 0 24.71 17.77c8.11 4.56 17 7.36 25 12.14 7.54 4.5 15.21 10.12 20.24 17.44 2.56 3.71 3.52 6.31 3.58 10.63 0.25 16.67-13.76 31.88-24.62 42.85-5.37 5.43 3 13.82 8.39 8.39 11.72-11.86 24.09-26.36 27.3-43.28 2.26-11.88-1.16-21.77-9.22-30.68-6.42-7.1-14.59-12.89-23-17.47s-17.78-7.57-26.16-12.56c-18.24-10.86-34.4-25.58-49.11-40.8A108.44 108.44 0 0 1 309 567.19c-5.29-11.07-6.93-22.22-8.81-34.18-0.25-1.56-2.77-1.48-3.08 0zM703 533c-1.61 11.12-3.12 21.63-7.71 32a106.28 106.28 0 0 1-18.13 27.89c-15.09 16.8-34.95 28.59-55.64 37.2-10.08 4.21-20.52 7.47-30.52 11.8-8 3.44-16.65 7.78-22.44 14.42-8.15 9.35-11.4 22.87-11.49 35-0.18 22.74 11.35 43.14 26.92 59 5.36 5.45 13.75-2.94 8.39-8.39-13.42-13.64-23.61-31-23.45-50.6 0.07-9.68 2.83-21.83 9.55-28.23 7.62-7.25 18.46-11.05 28.1-14.74a293.78 293.78 0 0 0 29.91-12.92c18.56-9.54 36.21-22.09 49.22-38.59 13.41-17 24.75-41.64 20.36-63.81-0.29-1.48-2.85-1.56-3.07 0z" fill="#5E361B" /><path d="M665 771.61c14.63-10.46 32.75-4.8 48 1.1 15.78 6.12 31.46 11.1 48.46 12.3 15.94 1.13 32.29-0.84 47.15-6.87 5.42-2.19 13.16-4.72 14.35-11.27a30.13 30.13 0 0 0 0-11.16c-13.53-72.24-10.11-146-9.81-219 0.3-71.67-3.29-144.39-28.43-212.27A354 354 0 0 0 685 180.71a340.87 340.87 0 0 0-72.38-48.31c-29.46-14.53-62.34-25.89-95.63-23.81a117.39 117.39 0 0 0-24.06 4c-3.69 1-2.13 6.77 1.58 5.74 33-9.13 67.47-1.43 98.33 11.48a325.28 325.28 0 0 1 75 44.4 350.08 350.08 0 0 1 104.55 135.37C800 373.2 806.42 443 807.12 511.66c0.71 70-3.72 140.29 4.66 210 1 8.44 2.2 16.87 3.59 25.26 1 5.89 2.92 11.91 1.8 17.91-1.16 6.22-13.55 9-18.92 10.6a99 99 0 0 1-24.11 3.84 128.54 128.54 0 0 1-47.72-7.76c-14.8-5.28-29.55-12.94-45.74-11.61a36.85 36.85 0 0 0-18.68 6.57c-3.09 2.21-0.12 7.38 3 5.14z" fill="#5E361B" /><path d="M341 768c-12.18-8.31-25-14.23-40-13.34-13.08 0.77-25.51 5.31-37.92 9.12-12.77 3.92-26.47 7.6-39.8 4.2-14.89-3.82-29.37-15.38-38.81-27.23l0.46 3.6 3.51-7.79c1.68-3.71 2.09-7.34 2.61-11.4 1.77-13.77 3-27.6 3.86-41.45 1.75-28.48 1.87-57 1.66-85.57-0.44-56.65-2.3-113.53 4.14-169.94 6.29-54.2 20.9-107.49 48.46-154.87a349 349 0 0 1 95.22-105.95 319.85 319.85 0 0 1 70.92-39.53c29.56-11.64 62.15-18.12 93.38-9.47 3.69 1 5.27-4.72 1.58-5.74-51.69-14.32-106.85 9.48-150.07 36.8a354 354 0 0 0-102.26 98.89c-29.8 43.47-48.52 93-58 144.72-10.48 57.35-10.27 115.88-9.63 174 0.36 32.25 0.84 64.52-0.36 96.75-0.61 16.3-1.65 32.59-3.36 48.81-0.66 6.21-0.64 13.71-2.64 19.57-1.06 3.14-2.78 6.17-4.14 9.2a3.17 3.17 0 0 0 0.47 3.61 90.7 90.7 0 0 0 34.85 26.51c12.67 5.23 26.13 4.26 39.16 1 13.45-3.36 26.38-8.87 40.11-11.11 16.52-2.7 30 2.52 43.54 11.73 3.18 2.16 6.16-3 3-5.14z" fill="#5E361B" /><path d="M911.77 823a77.65 77.65 0 0 0-46.58-18.32 0.22 0.22 0 0 1-0.28 0.12l-0.58-0.17c-1 0-2-0.06-3-0.07l-12.17-4.36-18.24-43.5H803l16.17 128.41c4.61 36.65 40.25 61.52 76 52.28 14.08-3.63 27.1-12.3 35.52-29.66 14.14-29.1 5.93-64-18.92-84.73zM905 887.49a32.22 32.22 0 0 1-40 21.91 32.24 32.24 0 1 1 40-21.92z" fill="#FF6E6E" /><path d="M791.55 756.7l-18.21 43.54-12.17 4.36c-1 0-2 0-3 0.07l-0.58 0.17a0.23 0.23 0 0 1-0.29-0.12A77.58 77.58 0 0 0 710.66 823c-24.85 20.69-33.06 55.58-19 84.68 8.41 17.37 21.44 26 35.52 29.67 35.76 9.23 71.39-15.62 76-52.27l16.2-128.42z m-34.1 152.72a32.24 32.24 0 1 1 21.94-40 32.25 32.25 0 0 1-21.94 40z" fill="#FF6E6E" /><path d="M806.27 764.83l53.4-178 6.57 15a58.58 58.58 0 0 1 4.54 31.77l-13.69 96.12c-2.22 15.57-11 29.36-24.4 38.61l-26.42-3.5" fill="#72C1E8" /><path d="M816 764.88L763.53 586.4l-6.64 15a58.36 58.36 0 0 0-4.7 31.73l13.22 96.23c2.14 15.59 10.8 29.45 24.2 38.83l26.39-3.31" fill="#72C1E8" /><path d="M946.61 523.63h-0.05c-24.74-5.71-35.34-28.71-38.28-36.55a1 1 0 0 0-1.79 0c-2.94 7.84-13.53 30.84-38.28 36.55h-0.09a1 1 0 0 0-0.23 1.81c10.48 4.92 36.93 19.95 39.32 47.18h0.35c2.38-27.4 28.76-42.3 39.28-47.18a1 1 0 0 0-0.23-1.81zM274.76 845.33h-0.05c-24.75-5.71-35.34-28.72-38.28-36.55a1 1 0 0 0-1.8 0c-2.94 7.83-13.53 30.84-38.28 36.55h-0.09a1 1 0 0 0-0.22 1.81c10.48 4.92 36.92 19.94 39.31 47.18h0.35c2.38-27.41 28.77-42.31 39.28-47.19a1 1 0 0 0-0.22-1.8zM384.33 716.68c8.2 21.82 28.43 36.86 49.43 45.34a103.11 103.11 0 0 0 68.69 3.11l-6.66-8.67c-12.13 16.5-12.55 38.16-23.21 55.42-9.36 15.15-24.36 27-41.53 31.92-37 10.62-78.4-15.6-79.92-55.18-1-25.8 15-43.93 31.82-61.3 5.21-5.38-2.56-12.88-8.12-8.12-17.9 15.29-32.87 36.12-35.31 60.06a70.27 70.27 0 0 0 23.79 60c15.42 13.22 36.18 20.52 56.53 18.7 20.9-1.88 40.6-12.46 54.31-28.27a89.88 89.88 0 0 0 17.41-31c4.13-12.43 6.53-25.45 14.42-36.22 3.08-4.2-2-10.12-6.67-8.66-20.16 6.32-41.46 4.93-61.16-2.42-19.94-7.44-35.39-21.6-49.12-37.38-1.8-2.07-5.69 0.12-4.7 2.73z" fill="#FFCD2C" /><path d="M614.2 714c-13.74 15.79-29.18 29.92-49.13 37.38-19.68 7.36-41 8.74-61.16 2.42-4.62-1.45-9.76 4.45-6.67 8.66 7.23 9.87 9.86 21.61 13.42 33.09 3.16 10.18 7.43 19.82 13.82 28.4 12.29 16.51 30.47 29 50.87 32.89 43.46 8.2 87.58-23.82 88.68-69 0.67-27.29-15.55-51.42-35.63-68.57-5.56-4.75-13.34 2.74-8.13 8.12 14.81 15.2 29.89 31.21 31.73 53.61a59 59 0 0 1-22.09 51.21c-14 11.05-33 16.39-50.63 13.28-17.86-3.15-34.11-13.63-44.91-28.13-6.53-8.76-10.33-18.52-13.42-28.9-3.31-11.13-6.5-22.47-13.46-31.95l-6.67 8.67a103 103 0 0 0 68.64-3.18c21-8.51 41.23-23.49 49.44-45.34 1-2.61-2.91-4.8-4.7-2.73z" fill="#FFCD2C" /></svg>