<?xml version="1.0" standalone="no"?><!DOCTYPE svg PUBLIC "-//W3C//DTD SVG 1.1//EN" "http://www.w3.org/Graphics/SVG/1.1/DTD/svg11.dtd"><svg class="icon" width="200px" height="200.00px" viewBox="0 0 1024 1024" version="1.1" xmlns="http://www.w3.org/2000/svg"><path d="M175.4 770.03m-81 0a81 81 0 1 0 162 0 81 81 0 1 0-162 0Z" fill="#FFAFAF" /><path d="M832.4 491.03m-81 0a81 81 0 1 0 162 0 81 81 0 1 0-162 0Z" fill="#FFAFAF" /><path d="M696.05 753.38m-196.65 0a196.65 196.65 0 1 0 393.3 0 196.65 196.65 0 1 0-393.3 0Z" fill="#FFAFAF" /><path d="M354.5 391.13m-269.1 0a269.1 269.1 0 1 0 538.2 0 269.1 269.1 0 1 0-538.2 0Z" fill="#FFAFAF" /><path d="M768 314.73c-32.76-89.08-78.79-148.41-164-186.55-31.85-14.25-67.56-23.58-101.38-16.68-33.81-6.9-69.52 2.43-101.37 16.68C316 166.32 262.85 226.94 230.09 316c-34.83 94.73-30.23 181.17-36 250.42v339.1l594 7.4V723.81c0-128.79-7.85-195.33-3.51-290.79 1.78-39.13-1.9-78.4-16.58-118.29z" fill="#5E361B" /><path d="M342.84 431.79a3 3 0 0 0-1.39 4.66c13-15.25 30.38-27.44 50.07-31.25s41.67 1.76 55 16.71M375.2 393c0 0.65-1.24 0.33-1.21-0.33s0.68-1.07 1.26-1.36a74.07 74.07 0 0 1 61.6-2.22M406.42 347.35a36.53 36.53 0 0 1 39 2.27c-0.39-5-4.61-9-9.32-10.77s-9.86-1.6-14.88-1.46c-8.3 0.25-17.62 0.94-23.1 7.19M390 437.57c-7.61 0.48-12.94 7.54-16.65 14.19-4.48 8-8.3 16.73-8.5 25.92-0.35 15.75 11.14 30.8 26.24 35.31s32.54-1.41 42.38-13.72 11.87-30.14 5.78-44.67c-2.26-5.38-5.64-10.44-10.45-13.75-6.66-4.6-15.21-5.34-23.3-5.2-8.69 0.15-18.45 1.75-23.51 8.81" fill="#FFEFE5" /><path d="M402.81 480.71c-3 2.08-0.92 7.57 2.7 8s6.83-3 7.33-6.59a6.54 6.54 0 0 0-0.32-3.37c-1.31-3.24-6.18-4-8.83-1.71s-2.91 6.61-1.08 9.6 5.29 4.7 8.77 5.1a6 6 0 0 0 3-0.29 6.28 6.28 0 0 0 2.92-3.67 15.26 15.26 0 0 0 0.69-10.28c-1.11-3.32-4-6.15-7.53-6.48a8.61 8.61 0 0 0-5.77 1.66c-4.83 3.48-5 11.74-0.33 15.43s12.66 1.61 14.93-3.9a16.23 16.23 0 0 0 0.71-7.87c-0.27-2.6-0.8-5.29-2.39-7.36-3.62-4.73-12-3.76-15.23 1.22s-1.59 12.2 2.89 16.13c2.61 2.3 6.36 3.64 9.62 2.44a10 10 0 0 0 5.3-5.39 14.1 14.1 0 0 0-1-14c-2.91-4-8.65-5.81-13.12-3.75s-6.76 8.14-4.3 12.4M502.9 499.85l-5.55 15.56c-1.82 5.1-3.57 11.08-0.65 15.64 3.95 6.18 13.1 5.25 20.23 3.56M479.46 565c-2.22 4.35 1 9.58 4.88 12.58A29.47 29.47 0 0 0 529 567.33M388.25 539.65a114.84 114.84 0 0 0-7.12 20M415.31 544.21a19.78 19.78 0 0 1 0.79 9.92M662.33 431.79a3 3 0 0 1 1.38 4.66c-13-15.25-30.38-27.44-50.06-31.25s-41.67 1.76-55 16.71M630 393c0 0.65 1.23 0.33 1.21-0.33s-0.69-1.07-1.27-1.36a74 74 0 0 0-61.59-2.22M598.75 347.35a36.53 36.53 0 0 0-39 2.27c0.39-5 4.6-9 9.31-10.77s9.87-1.6 14.88-1.46c8.31 0.25 17.62 0.94 23.1 7.19M615.22 437.57c7.6 0.48 12.93 7.54 16.65 14.19 4.48 8 8.3 16.73 8.5 25.92 0.35 15.75-11.15 30.8-26.24 35.31s-32.55-1.41-42.38-13.72-11.87-30.14-5.75-44.67c2.26-5.38 5.64-10.44 10.44-13.75 6.66-4.6 15.21-5.34 23.3-5.2 8.7 0.15 18.46 1.75 23.52 8.81" fill="#FFEFE5" /><path d="M602.35 480.71c3 2.08 0.92 7.57-2.69 8s-6.83-3-7.34-6.59a6.54 6.54 0 0 1 0.32-3.37c1.32-3.24 6.19-4 8.83-1.71s2.91 6.61 1.09 9.6-5.29 4.7-8.77 5.1a6 6 0 0 1-3-0.29 6.28 6.28 0 0 1-2.92-3.67 15.14 15.14 0 0 1-0.69-10.28c1.11-3.32 4-6.15 7.53-6.48a8.63 8.63 0 0 1 5.77 1.66c4.83 3.48 5 11.74 0.33 15.43s-12.66 1.61-14.94-3.9a16.35 16.35 0 0 1-0.7-7.87c0.27-2.6 0.79-5.29 2.38-7.36 3.63-4.73 12-3.76 15.24 1.22s1.59 12.2-2.89 16.13c-2.61 2.3-6.37 3.64-9.63 2.44a10 10 0 0 1-5.29-5.39 14.12 14.12 0 0 1 1-14c2.92-4 8.65-5.81 13.13-3.75s6.76 8.14 4.29 12.4M616.92 539.65a114 114 0 0 1 7.11 20M589.86 544.21a19.66 19.66 0 0 0-0.79 9.92" fill="#FFEFE5" /><path d="M521.86 194.79c-32 72.29-96.65 124-158.93 172.67a24.08 24.08 0 0 1-0.46-17.65c-30 16.83-52.05 49.13-60.62 82.41-11.87 46.06-13.62 69.91-10.53 102.94l2.58-7c-0.95 25.83 11.33 51 29.39 69.46s41.47 40.82 65.63 50c13.47 5.13 13.19-0.31 24 9.18s16.64 25.88 9.92 38.63H567.1c-6.72-12.75-0.24-29.14 10.61-38.63s25.07-13.93 38.54-19.06c24.15-9.2 47.56-21.65 65.62-40.14s30.35-43.63 29.4-69.46l2.58 7c3.09-33 1.34-56.88-10.53-102.94-8.57-33.28-30.66-65.58-60.62-82.41a24.08 24.08 0 0 1-0.46 17.65C580 318.75 534 304.59 502 232.29" fill="#FFEFE5" /><path d="M519.74 193.58c-29 54.69-72.86 98-120.16 137-13.46 11.11-27.18 21.89-40.92 32.64l9.95 2.63a20.34 20.34 0 0 1-0.46-14.49c1.66-5.06-4.41-9.21-8.75-6.72-30.86 17.64-53 49.1-62.56 83-9.12 32.33-14.58 65.76-12.2 99.38 0.87 12.38 3 23.95 7.59 35.54a264.61 264.61 0 0 0 18 36c14.37 24.72 30.89 48.23 43.95 73.71 10.54 20.56 22.09 47.81 7.94 69.42-4.21 6.42 6.1 12.4 10.28 6 12.62-19.26 8.59-42.9 0.47-63.08-10.32-25.67-25.88-48.87-40.4-72.28-13.41-21.61-28.34-44.39-34-69.55-2.89-12.92-2.93-26.95-2.54-40.13 0.48-16.08 3-31.94 6.45-47.63 4.53-20.72 9.95-40.65 21.18-58.84 10.43-16.9 24.53-31.45 41.82-41.34l-8.74-6.73a30.68 30.68 0 0 0 0.46 20.83c1.73 4.46 6.25 5.52 9.95 2.62 48.78-38.16 98.9-77.5 133.42-129.74a225 225 0 0 0 23.61-46.5c0.93-2.55-3.11-4.22-4.37-1.85z" fill="#5E361B" /><path d="M511.24 111.21c-46.24-15.68-96.91 3.27-137.87 25.14-34.61 18.49-65.72 43.21-90.68 73.55-26 31.62-44.91 68.1-58.89 106.45-17 46.72-26.46 95.57-29.54 145.15-3.35 53.8-0.68 107.88-0.68 161.77v152c0 38.26-0.64 76.59 0 114.84v1.92c0 7.6 11.81 7.61 11.81 0V641.05c0-44.59-1-89.2-0.75-133.78C205 461 208.5 415 219.55 369.93c10.59-43.13 26.65-85.39 50.29-123.11a290.25 290.25 0 0 1 78.42-83 340.91 340.91 0 0 1 52.55-30.25c22.66-10.59 47-19 72.11-20.51a135.28 135.28 0 0 1 37.08 2.67 2.35 2.35 0 0 0 1.25-4.52z" fill="#5E361B" /><path d="M355 413.67a5.93 5.93 0 0 0-5 4.19c-0.91 2.82 2.31 4.68 4.63 3.56 8.4-4.05 15.81-9.62 24.66-12.89a70.53 70.53 0 0 1 26.58-4.8 52.82 52.82 0 0 1 22.83 5.89 45.34 45.34 0 0 1 10.18 7.2c3 2.87 5.17 6.48 8.57 8.89 4.05 2.87 8.67-1.85 7.78-6-1.9-8.82-13.09-16.41-20.56-20.33a64.31 64.31 0 0 0-28.05-7.34 71.42 71.42 0 0 0-30.62 6.43c-9.36 4.14-19.5 10.27-25.63 18.64l4.31-1.13 0.87-0.39c0.84-0.47 0.53-2-0.52-1.92zM547.59 413.67a5.93 5.93 0 0 0-5 4.19c-0.91 2.82 2.31 4.68 4.63 3.56 8.4-4.05 15.8-9.62 24.66-12.89a70.53 70.53 0 0 1 26.58-4.8 52.82 52.82 0 0 1 22.83 5.89 45.34 45.34 0 0 1 10.18 7.2c3 2.87 5.17 6.48 8.57 8.89 4.05 2.87 8.67-1.85 7.78-6-1.9-8.82-13.09-16.41-20.56-20.33a64.35 64.35 0 0 0-28.06-7.34 71.41 71.41 0 0 0-30.66 6.41c-9.36 4.14-19.5 10.27-25.64 18.64l4.32-1.13 0.87-0.39c0.84-0.47 0.53-2-0.52-1.92zM393.53 350.84c12.56-4.39 24.29-3.3 35.27 4.51 4.68 3.32 9.22-2.16 8.58-6.6-1.83-12.74-15.46-16.7-26.47-16.69-9.67 0-26.18 0.19-31.19 10.44-2.38 4.87 2.49 10.2 7.5 7.5 3.53-1.89 6-4.11 10-5a55.65 55.65 0 0 1 10.31-1c6.67-0.21 17.24-0.81 18.55 7.83l8.59-6.6c-12.71-8.89-31.64-8.83-44 0.72-2.31 1.78 0.2 5.78 2.82 4.86z" fill="#141E3D" /><path d="M393.56 437.57c-7.6 0.48-12.93 7.54-16.65 14.19-4.48 8-8.3 16.73-8.5 25.92-0.35 15.75 11.15 30.8 26.24 35.31s32.55-1.41 42.38-13.72 11.87-30.14 5.78-44.67c-2.26-5.38-5.64-10.44-10.44-13.75-6.67-4.6-15.21-5.34-23.3-5.2-8.7 0.15-18.46 1.75-23.52 8.81" fill="#B2C8DD" /><path d="M389.89 435.36c-9.3 0.6-15.26 7-20.13 14.37-5.69 8.62-10.48 18.85-10.52 29.38-0.09 19.1 15 36.8 33.64 40.43a47.06 47.06 0 0 0 48.65-21.64c10.27-17.1 9.52-41.75-3.94-57-7.95-9-19.87-11.3-31.38-11.19-10.28 0.09-21.82 2-28.54 10.56-4.67 6 3.7 14.46 8.42 8.42 4.21-5.39 10.68-6.7 17.23-7 7.39-0.35 16.13-0.27 22.37 4.32 11.86 8.71 13.2 27.81 8.25 40.5a35.19 35.19 0 0 1-32.42 22.06c-13.8 0.05-25.86-9.5-30-22.56-2.76-8.75-0.85-17.79 2.5-26.1 3.05-7.56 7.33-18.62 16.42-20.2 2.44-0.42 1.89-4.48-0.58-4.33z" fill="#141E3D" /><path d="M401.71 478.75c-10.59-0.69-15.12 11.9-10.88 20.1 4.76 9.22 16.56 11.88 25.28 6.42 9.74-6.12 13.52-19.62 7.25-29.48-6.83-10.79-23.23-12.69-32.36-3.73-8.06 7.93-9.41 21.39-2.86 30.68 6.77 9.59 20.24 15.19 31.53 10.42s15.54-18.26 14-29.6a26 26 0 0 0-22.11-22.33c-23.93-3.21-38 28.68-20.54 44.85a26.52 26.52 0 0 0 28.69 4.76c10.32-4.35 16.13-14.43 16-25.51-0.13-10.49-4-20.89-13.45-26.32-8.48-4.88-20-3.92-27.84 1.61-19.18 13.45-12.39 46 10.61 51.08 28.85 6.36 43-34 21.27-50.8-9-7-22.21-8.69-31.83-1.78-11.24 8.08-14 21.57-8.23 33.87 3.73 7.91 15.7 10.56 22.8 6 8.14-5.24 10-14.35 6-22.81 2.21 4.67 1.15 4.45 0.46 7.83-0.63 1.2-0.57 1.13 0.19-0.22l-3.4 3.39a6.44 6.44 0 0 1-4.38 0.68c-1.36-0.25-3.06-2-1.18-0.26-1-0.89-2-1.3-2.54-2.64a2.13 2.13 0 0 1-0.34-1.41c-0.07-1.26-0.09-1 0 0.71-0.62-0.95 0.84-2.19-0.22-0.07 0.84-1.68 1.15-2.8 3-3.75 2.94-1.55 5.52-1.15 8.52-0.2 1.06 1.07 1.19 1.21 0.4 0.43s-0.66-0.64 0 0.1c0.29 1.22 1.82 2.88 0.59 0.74l0.21 1.73v-0.46a11.45 11.45 0 0 1-4 5.93c1.85-1.65-0.38 0.2-1.79 0.35s-4.11-1.1-2 0c-2.23-1.18-4.29-2.17-5.72-4.27-0.43-0.63-0.7-3.81-0.29-0.24 0.21 1.78-0.47 1.59 0.26 0.33a10.43 10.43 0 0 1 2.57-3.58c0.93-0.72 4-1.61 1.44-1a8 8 0 0 1 8.8 3.33c0.45 0.73 1.19 4.88 1.12 3.31 0-0.94 0-0.79-0.07 0.47a5 5 0 0 1-0.83 2.9c-2.71 5.06-11.76 5.16-14.3-0.14-0.36-0.74-0.18-2-0.52-2.62 0.87 1.52-0.79 2.19 0.55-0.41l11.77-5-1.46-0.39a8.65 8.65 0 0 1 4.31 3.92c3.84 7.37-8.86 18.13-15.23 10.29l-3.86-6.63a9.51 9.51 0 0 0 1.28-3.81q1.9-3.06 6.44-0.06 9.25 3.09 4.13-1.77a4.58 4.58 0 0 1 1.45 3.59 8.74 8.74 0 0 0-8.53-8.53zM500.5 498.48c-4 5.41-6.74 12.48-9.11 18.74-2.15 5.68-2.75 11.9 0.68 17.23 5.21 8.07 21.13 10.58 27.78 3.15 2.3-2.57 1.1-5.83-1.86-7.05-4.79-2-15.92 2.47-17.27-4.69-0.78-4.15 1.06-8.77 2.11-12.72 1.16-4.37 2.49-8.75 2.73-13.29 0.16-2.94-3.61-3.35-5.06-1.37zM468.94 570.9c-10.53 18.57 19 30.12 32.65 31.43 18.6 1.79 38.91-7.33 47.71-24.2 3.28-6.29-5.66-11.52-9.51-5.56A40.82 40.82 0 0 1 507.23 591a46.58 46.58 0 0 1-20.55-3.76c-4.72-2.1-15.05-7.45-12.48-14.15 1.19-3.09-3.68-5-5.26-2.22zM385.29 538a49.88 49.88 0 0 0-6.7 11.45c-1.66 4-4 8.48-1.46 12.51a4.67 4.67 0 0 0 6.25 1.64c3.92-2.13 4.22-6.72 5.25-10.67 1.08-4.12 1.92-8.19 2.79-12.35 0.82-3.89-3.87-5.56-6.13-2.58z" fill="#141E3D" /><path d="M499.69 232.93c9 24.73 22.61 47.17 41.43 65.7 17.26 17 37.4 30.62 57.25 44.36 13.41 9.27 26.74 18.66 39.6 28.68 3.7 2.89 8.21 1.84 9.95-2.62a30.68 30.68 0 0 0 0.46-20.83l-8.74 6.78c31.5 18 50.72 50 59.31 84.49 7.9 31.7 12.23 63.08 8.88 95.72-2.49 24.35-16.92 47.19-29.32 67.62-14.46 23.84-30.51 47-42.21 72.38-10.4 22.54-18.42 50.09-3.66 72.64 4.18 6.39 14.5 0.43 10.28-6-12.26-18.74-5-41.94 3.66-60.63 11.88-25.76 28.22-49.23 42.86-73.45 13-21.49 26.92-44.88 30-70.26 3.94-32-0.08-63.71-7.51-94.87-4.83-20.28-11.49-39.48-23.19-56.91-11.17-16.65-25.67-31-43.13-41-4.33-2.48-10.41 1.65-8.75 6.72a20.39 20.39 0 0 1-0.46 14.49l9.95-2.63c-21-16.39-43.34-30.89-65.09-46.28-19.2-13.57-37.43-28.38-52.15-46.87a258.39 258.39 0 0 1-25.09-39c-1.25-2.34-5.31-0.73-4.37 1.85z" fill="#5E361B" /><path d="M495.06 115.73c30.41-7.53 62.27-1.48 91.07 9.53a304.68 304.68 0 0 1 67.15 35.93c37.32 26.46 65.84 62 86.72 102.51 10 19.45 19.47 40.06 25.49 61.15 6.17 21.59 10.12 44 13.11 66.22a473.2 473.2 0 0 1 3.81 63.27v56.35l-0.06 86.71-0.06 100.09-0.09 96.51v75.92c0 12.79-0.22 25.59 0 38.38v1.74c0 7.63 11.86 7.64 11.86 0v-27.29-70l-0.06-94.46-0.06-102.19-0.06-91.78v-63.61c0-15.2 0-30.29-1.29-45.47a551.77 551.77 0 0 0-12-75.71c-4.63-20.17-11.8-39.14-20.2-58.05-18.82-42.39-44.85-81.69-80.47-111.8a290.21 290.21 0 0 0-59.57-38.56c-26.06-12.81-54.41-23.51-83.68-25a123.33 123.33 0 0 0-42.74 5.09 2.35 2.35 0 0 0 1.25 4.52z" fill="#5E361B" /><path d="M609.6 345.29c-12.36-9.55-31.28-9.6-44-0.72l8.58 6.6c1.31-8.64 11.91-8 18.56-7.82a55.72 55.72 0 0 1 10.31 1c4.06 0.9 6.49 3.11 10 5 5 2.69 9.89-2.63 7.5-7.51-5-10.25-21.52-10.42-31.19-10.44-11 0-24.64 4-26.47 16.69-0.63 4.42 3.92 9.91 8.58 6.6 11-7.8 22.71-8.9 35.27-4.51 2.63 0.92 5.14-3.07 2.83-4.86z" fill="#141E3D" /><path d="M616.13 437.57c7.6 0.48 12.93 7.54 16.65 14.19 4.48 8 8.29 16.73 8.5 25.92 0.35 15.75-11.15 30.8-26.25 35.31s-32.54-1.41-42.37-13.72-11.88-30.14-5.78-44.67c2.25-5.38 5.64-10.44 10.44-13.75 6.66-4.6 15.21-5.34 23.3-5.2 8.69 0.15 18.45 1.75 23.52 8.81" fill="#B2C8DD" /><path d="M614.57 439.69c7.89 1.37 11.91 9.85 14.84 16.47 3.38 7.62 6.26 15.9 5.3 24.37-1.52 13.4-12.41 25.24-25.69 27.59-13.57 2.4-28.16-4.48-35.22-16.23-7.34-12.23-7.48-29.54 1.05-41.29 5.67-7.8 15-9.09 24-9 7.4 0.07 15.27 0.89 20.12 7.08 4.71 6 13.09-2.45 8.42-8.42-5.94-7.6-15.75-9.93-25-10.46-9.81-0.55-20.71 0.28-29.08 5.92-17.13 11.54-20.46 37.35-13.16 55.36S585.5 521.14 605 520.4c19.1-0.73 36.75-15.07 40.18-34.15 2.07-11.57-1.65-22.94-7.54-32.86-5.15-8.67-11.59-17.33-22.43-18-2.44-0.15-3 3.9-0.59 4.33z" fill="#141E3D" /><path d="M605.22 487.28a4.61 4.61 0 0 1 1.45-3.59q-5.11 4.86 4.13 1.77 4.53-3 6.44 0.06a9.38 9.38 0 0 0 1.29 3.81l-3.87 6.67c-1.55 1.91-8.13 2.06-10.11 1.49-4.55-1.33-6.39-6.87-5.45-11 0.35-1.57 4-4.72 4-4.48 0.85-0.26 0.81-0.26-0.12 0q-7.25 1.73 11 5.15c0.25 0.67 0.61 3.26 0.56 1.28s-0.23 1.13-0.53 1.75c-2.59 5.4-11.42 5.14-14.3 0.14a7.93 7.93 0 0 1-0.91-4c0 2.81 0.37-1 0.71-1.81 1.64-3.8 4.68-4.07 8.18-4.43 1.43 0.28 1.39 0.25-0.1-0.11l1.83 0.72c1.18 1.12 2.31 1.87 3 3.47 0.55 1.29 0.19 3.22 0.59 0.38 0.32-2.35 0.49-1-0.29 0.24-1.4 2.24-2.87 3.06-5.72 4.27 2-0.84 0.11 0.08-1 0.13a4.85 4.85 0 0 1-3-0.67c-1-0.53-1.17-0.57-0.37-0.12 2 1.28-2.93-3-3.5-4.72-0.08-2-0.1-2.39-0.07-1.12 0 1 0 0.9 0.12-0.19 0.37-2.24-0.51 2.23 0.21-1l1-1.16c-1.13 1.12-1.3 1.29-0.53 0.51 3.9-0.08 4.1-3.27 9-0.26 1.3 0.8 1.77 2 2.71 3 0.33 1 0.35 1 0 0-0.31-1.2-0.31-0.94 0 0.79v-1.48l-0.11 1.54c-0.78 1.78-1.39 2-2.82 3.28 1.43-1.24 1.11-0.16-0.29 0.11a7.49 7.49 0 0 1-4.45-0.22c-2-0.73-5.29-5.93-3.61-2.64-1.56-3.05-1.67-5.07 0-8.67-3.72 7.87-2.46 18.35 6 22.81 7.4 3.91 18.83 2.44 22.8-6 4.92-10.42 3.92-21.71-4-30.4s-20.64-9.57-30.89-5c-20.23 9.06-21.19 40.57-2.24 51.59 21.51 12.52 45.41-11.94 39.49-33.75-5.84-21.48-37.63-27.33-48.17-6.27-4.61 9.2-5.51 22.64 0.32 31.57a27.05 27.05 0 0 0 26.41 12.08c22.66-3 29.52-33 11.82-46.66a24.93 24.93 0 0 0-32.31 1.77c-8.24 7.87-10.16 20.34-6.4 30.84 4.5 12.58 16.27 18.86 29.3 14.8 10.94-3.41 19.56-13.61 19-25.42-0.71-14.3-13.55-24.85-27.73-21-14.35 3.93-18.85 21.26-10.21 32.63 7.26 9.55 22.82 11.87 30 0.84 5.35-8.19 2-22.7-9.82-21.92-4.69 0.31-8.4 3.66-8.53 8.53zM613.63 540.54c0.87 4.16 1.7 8.23 2.79 12.35 1 4 1.34 8.54 5.25 10.67a4.66 4.66 0 0 0 6.25-1.64c2.54-4 0.21-8.52-1.46-12.51a49.77 49.77 0 0 0-6.71-11.41c-2.24-3-6.94-1.34-6.12 2.58z" fill="#141E3D" /><path d="M389.67 541.67c-5.28-3.34-12.79-0.81-14.64 5.31-2.14 7.1 4.78 14.22 11.85 13.33 3.44-0.44 7-3.4 5.6-7.36-4.93-14.14-28.47-13.74-28.07 3.12 0.15 6.67 4.81 13.14 11.58 14.21 7.08 1.11 13.4-4.15 15-10.89 4.57-18.87-26.09-22.76-34.82-9.94-10.43 15.32 11.29 29 25.05 26.24a15.46 15.46 0 0 0 12.62-15.09c0-7.91-5.3-14.69-12.42-17.62-7.54-3.1-18.25-2.87-25.38 1.32-6.84 4-8.81 12.51-6.36 19.71 5.7 16.76 31.67 18.94 45.32 11.55 6.71-3.63 11.42-11.1 10-18.85-1.62-8.55-9.49-14.26-16.93-17.68-14.61-6.7-35.51-4.65-40.27 13.53-4.87 18.66 15.51 26.34 30.33 26.59 8.23 0.13 17.21-1.84 23.19-7.89 5.18-5.25 7.91-13.44 5.83-20.65-2.35-8.14-10-11.81-17.42-14.43-8-2.84-16.83-4.32-25.23-2.52-15.48 3.3-24.15 20-18.46 34.72 6.05 15.62 25.81 19.29 40.77 18.59 7.78-0.36 15.84-2.51 21-8.67 5.54-6.55 6.21-15.85 3-23.62-6.56-16-28.07-25.95-44.62-21.66C351 537 340.72 555.91 351 569.56c8.89 11.82 28 15.82 41.84 12.83 15.13-3.26 24.5-17.81 19.59-32.81-5.19-15.83-21-23.26-36.84-20.48-8.43 1.48-16 5.79-22.42 11.3-5.83 5 2.63 13.39 8.42 8.42 6.95-6 16.72-10.1 26-8a18.56 18.56 0 0 1 14.31 15.84c1.93 19-26 15.89-36.24 10-7.61-4.35-9.23-12.76-2.4-18.92 7.77-7 19.92-3.43 27.73 1.57 6.7 4.29 15 15.47 6.67 22.45-6 5-16.56 3.59-23.62 2.4-8.29-1.39-17-4.62-17.78-14.17-0.71-8.72 5.76-14.69 14.15-15.21a37.68 37.68 0 0 1 13.28 1.91c3.5 1.06 9.11 2.43 11.33 5.65 2 2.89 0.65 7.13-1.34 9.66-3 3.86-8.51 5-13.16 5.21-6.25 0.25-19.91-0.37-21.41-8.49-1.76-9.52 10.62-12.69 17.42-11.19 5.57 1.23 22.94 8.64 14.67 16.27-3.56 3.29-9.37 3.4-13.93 3.41s-9.91-0.25-13.56-3.19c-3-2.38-4.83-7.64-0.83-9.8s11.43-2 15.33 0.29c2.55 1.51 5.61 6 2.72 8.68-2.58 2.35-7.76 0.44-10.35-0.85-1.54-0.76-5.11-2.57-5.15-4.53-0.05-2.45 3-3.63 4.89-4 2.18-0.39 10.7-0.3 8.93 3.44-1.18 2.48-3.55 0.32-3-1.76 0.58-2.28 4.38-1.47 5.08 0.5l4.06-7.15c-2.36 0.92-0.83-1.87 1.66-0.88 3.79 1.51 5.86-4.32 2.68-6.34zM634.13 541.67c-5.27-3.34-12.79-0.81-14.64 5.31-2.14 7.1 4.78 14.22 11.85 13.33 3.45-0.44 7-3.4 5.61-7.36-4.94-14.14-28.47-13.74-28.08 3.12 0.15 6.67 4.81 13.14 11.58 14.21 7.08 1.11 13.4-4.15 15-10.89 4.57-18.87-26.08-22.76-34.82-9.94-10.43 15.32 11.29 29 25.06 26.24a15.46 15.46 0 0 0 12.61-15.09c0-7.91-5.29-14.69-12.42-17.62-7.54-3.1-18.25-2.87-25.37 1.32-6.85 4-8.82 12.51-6.37 19.71 5.7 16.76 31.67 18.94 45.33 11.55 6.7-3.63 11.41-11.1 9.94-18.85-1.61-8.55-9.49-14.26-16.93-17.68-14.61-6.7-35.51-4.65-40.26 13.53-4.88 18.66 15.5 26.34 30.32 26.59 8.24 0.13 17.21-1.84 23.19-7.89 5.19-5.25 7.91-13.44 5.83-20.65-2.34-8.14-10-11.81-17.42-14.43-8-2.84-16.83-4.32-25.22-2.52-15.49 3.3-24.16 20-18.47 34.72 6 15.62 25.81 19.29 40.78 18.59 7.78-0.36 15.83-2.51 21-8.67 5.54-6.55 6.22-15.85 3-23.62-6.57-16-28.08-25.95-44.63-21.66-15.28 4-25.53 22.89-15.26 36.54 8.89 11.82 28 15.82 41.84 12.83 15.13-3.26 24.5-17.81 19.59-32.81-5.19-15.83-21-23.26-36.84-20.48-8.43 1.48-16 5.79-22.42 11.3-5.82 5 2.63 13.39 8.42 8.42 7-6 16.72-10.1 26-8a18.54 18.54 0 0 1 14.31 15.84c1.93 19-26 15.89-36.24 10-7.61-4.35-9.23-12.76-2.4-18.92 7.78-7 19.93-3.43 27.73 1.57 6.7 4.29 15 15.47 6.67 22.45-6 5-16.56 3.59-23.62 2.4-8.29-1.39-17-4.62-17.78-14.17-0.71-8.72 5.76-14.69 14.15-15.21a37.77 37.77 0 0 1 13.29 1.91c3.49 1.06 9.11 2.43 11.32 5.65 2 2.89 0.65 7.13-1.34 9.66-3 3.86-8.51 5-13.15 5.21-6.26 0.25-19.92-0.37-21.42-8.49-1.75-9.52 10.63-12.69 17.42-11.19 5.57 1.23 22.95 8.64 14.68 16.27-3.57 3.29-9.37 3.4-13.93 3.41s-9.91-0.25-13.57-3.19c-3-2.38-4.83-7.64-0.83-9.8s11.43-2 15.33 0.29c2.55 1.51 5.61 6 2.72 8.68-2.57 2.35-7.75 0.44-10.35-0.85-1.53-0.76-5.11-2.57-5.15-4.53-0.05-2.45 3-3.63 4.89-4 2.18-0.39 10.71-0.3 8.93 3.44-1.18 2.48-3.55 0.32-3-1.76 0.58-2.28 4.38-1.47 5.09 0.5l4.06-7.15c-2.36 0.92-0.84-1.87 1.66-0.88 3.78 1.51 5.85-4.32 2.67-6.34z" fill="#EE8179" /><path d="M595.56 466.48c-4.66-3.52-10.67 2.56-9.15 7.46 1.6 5.2 8.2 7 12.45 3.87a9.46 9.46 0 0 0 3.63-6.14 7.39 7.39 0 0 0-0.46-4.86 7.29 7.29 0 0 0-2.91-2.73c-5.8-3.15-13.48 2-11.91 8.67a5.44 5.44 0 0 0 5.19 4c2.6-0.12 4.24-1.66 5.2-4-0.49 1.18-0.41 1 0.25-0.59-0.4 0.83-0.45 1-0.15 0.5-0.58 0.69-0.66 0.83-0.26 0.41-0.7 0.52-0.8 0.63-0.31 0.34s0.38-0.2-0.42 0.14c0.56-0.15 0.4-0.15-0.46 0 0.55 0 0.41 0-0.43-0.09-0.68-0.34-0.79-0.37-0.34-0.09l-2.2-2.86c0.3 0.89 0.12 0.82 0.24 0-0.16 0.5-0.14 0.52 0.06 0.08a4.86 4.86 0 0 1-0.4 0.7 0.8 0.8 0 0 1 0.45-0.47c-0.47 0.26-0.46 0.27 0 0 1.34 0-1.1-0.4 0.15 0-0.46-0.15-0.45-0.14 0 0 0.36 0.33 0.37 0.33 0 0 0.13 0.2 0.59 1.44 0.4 0.58a0.83 0.83 0 0 1-0.12 0.54q0.35-0.56 0.06-0.18c-0.13 0.2 0.38 0-0.05 0 3-0.11 3.58-3.61 1.42-5.24zM612.1 482.83a3.63 3.63 0 0 0-5.2 0l1.41-0.82a3.8 3.8 0 0 0-2.84 3.95 4 4 0 0 0 1.53 3 3.77 3.77 0 0 0 3.37 0.69 5.26 5.26 0 0 0 3.82-5.12 5.46 5.46 0 0 0-1.48-3.69 6.1 6.1 0 0 0-4.07-1.46l1.18 0.16a9.77 9.77 0 0 0-2.35-0.3 5 5 0 0 0-2.87 1 4.38 4.38 0 0 0-1.69 2.46 5.8 5.8 0 0 0 0.53 4.11 5.33 5.33 0 0 0 2.63 2.33 5.65 5.65 0 0 0 6.31-1.18 5.19 5.19 0 0 0 1.45-3.5 5.05 5.05 0 0 0-1.45-3.5 5 5 0 0 0-3.5-1.44 4.87 4.87 0 0 0-3.49 1.44 0.61 0.61 0 0 1-0.16 0.16l1-0.77-0.1 0.05 1.18-0.5-0.21 0.06 1.31-0.18h-0.23l1.31 0.17a2.35 2.35 0 0 1-0.43-0.13l1.17 0.49a0.54 0.54 0 0 1-0.18-0.11l1 0.76-0.05 0.04 0.75 1a0.42 0.42 0 0 1-0.11-0.18l0.48 1.14v-0.11l-2.18 5.35c0.28-0.15 0.56-0.28 0.84-0.4l-1.07 0.45 0.19-0.05-1.18 0.16a5.17 5.17 0 0 1 0.79 0l-1.16-0.16h0.19l-2.6-2a2 2 0 0 1 0.21 0.38l-0.43-1a5.07 5.07 0 0 1 0.13 0.56l-0.15-1.13a3.09 3.09 0 0 1 0 0.43l0.14-1.1a2.55 2.55 0 0 1-0.16 0.66l3.73-2.84h-0.09l1.91 0.52a0.54 0.54 0 0 1-0.18-0.1l0.75 0.58a7.82 7.82 0 0 0-1-0.76l1.47 3.61c0.09-0.42-0.09-0.21-0.56 0.63a1.87 1.87 0 0 1-2.37 1 2.92 2.92 0 0 0 3.23-1.31 3 3 0 0 0-0.44-3.47zM396.74 470.63a11.65 11.65 0 0 0-0.52 3 3.2 3.2 0 0 0 2.35 3.1c1.21 0.21 2.42 0.42 3.64 0.6a4 4 0 0 0 3.38-0.69 4 4 0 0 0 1.53-3.05c0.14-1.87 0.6-4-0.41-5.74a6.58 6.58 0 0 0-5.28-3 7.24 7.24 0 0 0-7.66 6.81c-0.23 4.22 3.46 7.14 7.34 7.48a7.35 7.35 0 0 0 7.8-7.1c0.19-4.85-4.52-9.32-9.39-7.91a5.14 5.14 0 0 0-3.71 4.88c0.09 2.1 1.48 4.46 3.71 4.88a2.13 2.13 0 0 1 0.42 0.1l0.4 0.17c-0.91-0.43-1.13-0.52-0.67-0.27q0.46 0.3-0.18-0.15c-0.4-0.33-0.47-0.37-0.2-0.11-0.57-0.79-0.71-1-0.43-0.52 0.41 0.7-0.39-1.41-0.14-0.23l-0.19-1.37a3.39 3.39 0 0 1 0 0.64l0.18-1.38c-0.07 0.58-0.34 0.68 0.29-0.42-0.2 0.32-0.15 0.26 0.16-0.18a2.55 2.55 0 0 1 1-0.94c-0.66 0.39 1.34-0.41 0.56-0.2s1.3-0.1 0.7-0.09c-0.95 0 1.12 0.27 0.6 0.12-0.79-0.24 0.53 0.22 0.58 0.3l-0.25-0.13c-0.34-0.21-0.13 0 0.65 0.52-0.52-0.54 0.65 1.14 0.32 0.46l0.36 0.87c-0.13-0.49-0.11-0.23 0.08 0.77 0-0.71-0.19 1-0.29 1.2-0.39 0.89-0.08 0.29 0 0.09-0.61 0.74-0.75 0.92-0.42 0.56l0.15-0.13c-0.49 0.63-0.9 0.71-0.35 0.32 0.3-0.15 0.22-0.13-0.22 0.08s-0.53 0.22-0.21 0.12l-0.87 0.11c0.47 0 0.25-0.05-0.67-0.14l0.18 0.05a2.73 2.73 0 0 1-1.31-0.79l-1.14-2c0.27 1.09 0.54 2.19 0.82 3.28l2.71-4.77c-1.22 0.21-2.43 0.45-3.64 0.69l3.95 2.24a10.86 10.86 0 0 0-0.94-2.78 2.64 2.64 0 0 0-2.64-1.27 2.74 2.74 0 0 0-2.2 1.9zM407.64 485.5a4.1 4.1 0 0 0 1 2.57 0.75 0.75 0 0 0 0.14 0.17l-0.35-0.48 0.49 0.63a4.37 4.37 0 0 0 1.69 1l-1.44-0.83 0.15 0.19a3.57 3.57 0 0 0 3.58 0.94 5 5 0 0 0 3.6-4.93 5.47 5.47 0 0 0-1.42-3.52 4.62 4.62 0 0 0-4.63-1.3h2.26a5.08 5.08 0 0 0-2.48 0 7.29 7.29 0 0 0-1.18 0.52 5.46 5.46 0 0 0-1.85 1.88 6.63 6.63 0 0 0-0.62 1.48 5.63 5.63 0 0 0-0.17 1.44 4.53 4.53 0 0 0 0.23 1.45A5 5 0 0 0 410 490a4.86 4.86 0 0 0 6.06-4.61 4.78 4.78 0 0 0-0.66-2.42 4.67 4.67 0 0 0-1.71-1.71l-0.08-0.06 1 0.74-0.07-0.07 0.73 1a1.63 1.63 0 0 1-0.11-0.17l0.47 1.11a1.47 1.47 0 0 1-0.08-0.3l0.17 1.22a0.5 0.5 0 0 1 0-0.21l-0.16 1.2a1.17 1.17 0 0 1 0.05-0.2l-0.44 1.06a6.5 6.5 0 0 0 0.56-1.4l-1.95 2.54 0.18-0.1-1 0.43h0.11-2.27 0.11l-1-0.42a1.78 1.78 0 0 1 0.3 0.17l-0.83-0.64a1.21 1.21 0 0 1 0.16 0.16l-0.63-0.82a2.29 2.29 0 0 1 0.18 0.29l-0.4-1a1.8 1.8 0 0 1 0.12 0.44l-0.14-1a1.22 1.22 0 0 1 0 0.33l0.14-1a0.79 0.79 0 0 1-0.06 0.22l0.38-0.9a1.28 1.28 0 0 1-0.11 0.2l0.58-0.76a4.71 4.71 0 0 0-1.23 2.09l2.28-2.28a11.14 11.14 0 0 0-1.13 0.46l1.53-0.42h-0.32l0.77 0.11-0.21-0.05a1.75 1.75 0 0 1 0.84 0.47 2.69 2.69 0 0 0-2.87-0.54 2.62 2.62 0 0 0-1.61 2.4z" fill="#FFFFFF" /><path d="M591.56 756.81S423.09 771.4 413 737s97.26-89.29 97.26-89.29L572.09 700" fill="#FFEFE5" /><path d="M384.81 715.87c22.81 39 74.11 58.57 117.08 44.74-9.83 12.89-11.72 30-17.76 45-10.6 26.41-35.84 46.8-64.12 50s-58.17-11.83-71.09-37.19A67.46 67.46 0 0 1 345 767.3c5.68-17.28 18.15-31.48 31.45-43.9M620.47 715.87c-22.8 39-74.11 58.57-117.08 44.74 9.83 12.89 11.72 30 17.76 45 10.61 26.41 35.84 46.8 64.12 50s58.18-11.83 71.1-37.19a67.5 67.5 0 0 0 3.93-51.11c-5.68-17.28-18.14-31.48-31.45-43.9" fill="#FFCD2C" /><path d="M292.3 527.76c-3.85 18.68 4.05 40.12 13.9 55.73 10.92 17.28 26.93 32.21 42.39 45.4a161.46 161.46 0 0 0 25.1 18.11c8.27 4.68 17.34 7.53 25.53 12.37 7.78 4.6 15.67 10.33 21 17.77 2.72 3.82 3.88 6.77 4 11.07 0.51 17.35-14.07 33.21-25.35 44.61-5.38 5.43 3 13.82 8.38 8.39 12-12.12 24.73-27 28-44.3 2.41-12.66-1.42-23-10.19-32.36a91.4 91.4 0 0 0-23.77-17.62c-8.77-4.67-18.15-7.69-26.7-12.87-18.59-11.25-35.29-26.34-50.24-42a111 111 0 0 1-20.28-29.7c-5.21-11.19-6.86-22.46-8.69-34.51-0.23-1.56-2.77-1.48-3.07 0zM709.67 527.76c-1.6 11.5-3.18 22.36-7.93 33.09A109.22 109.22 0 0 1 684 588.44c-15.27 17.43-35.49 29.68-56.64 38.69-10.59 4.5-21.59 7.92-32.16 12.44-8.37 3.58-17.59 8.07-23.7 15-8.38 9.58-11.72 23.48-11.82 35.92-0.18 23.33 11.65 44.28 27.64 60.54 5.36 5.45 13.75-2.94 8.39-8.39-13.83-14.05-24.33-31.92-24.17-52.15 0.08-10.21 3-22.85 10.27-29.5 8-7.3 18.94-11.17 28.86-15a302.77 302.77 0 0 0 30-12.91c19.63-10 38.22-23.29 51.81-40.84 13.4-17.31 24.58-42.17 20.25-64.57-0.29-1.48-2.86-1.56-3.08 0z" fill="#5E361B" /><path d="M765.59 768.94m12 0l21 0q12 0 12 12l0 156q0 12-12 12l-21 0q-12 0-12-12l0-156q0-12 12-12Z" fill="#72C1E8" /><path d="M752.09 552.94m12 0l48 0q12 0 12 12l0 264q0 12-12 12l-48 0q-12 0-12-12l0-264q0-12 12-12Z" fill="#AFADAE" /><path d="M801.47 159.22h-0.05c-24.75-5.71-35.34-28.72-38.28-36.55a1 1 0 0 0-1.79 0c-2.94 7.83-13.54 30.84-38.28 36.55h-0.09a1 1 0 0 0-0.23 1.8c10.48 4.92 36.92 19.95 39.32 47.18h0.35c2.37-27.4 28.76-42.3 39.27-47.18a1 1 0 0 0-0.22-1.8zM911.67 352c-24.74-5.71-35.34-28.72-38.28-36.55a1 1 0 0 0-1.79 0c-2.94 7.83-13.54 30.84-38.28 36.55h-0.09a1 1 0 0 0-0.23 1.8c10.48 4.92 36.93 19.95 39.32 47.18h0.35c2.37-27.4 28.76-42.3 39.28-47.18a1 1 0 0 0-0.28-1.8zM382 716.62c8.55 22.4 29.26 37.75 50.85 46.5a105.7 105.7 0 0 0 70.51 3.18l-6.66-8.67c-12.39 16.85-12.85 38.94-23.63 56.61-9.71 15.92-25.42 28.34-43.43 33.4-38.09 10.7-80.36-16.35-82-56.93-1.09-26.59 15.4-45.37 32.78-63.25 5.21-5.37-2.57-12.88-8.13-8.12-18.23 15.62-33.59 36.8-36.2 61.2a72.12 72.12 0 0 0 24.58 62.18c16.17 13.75 38 21.2 59.27 18.84a85.12 85.12 0 0 0 54.39-29A92.15 92.15 0 0 0 492 801.08c4.28-12.85 6.74-26.35 14.91-37.49 3.08-4.21-2-10.13-6.66-8.67-20.75 6.51-42.72 5.09-63-2.49-20.53-7.68-36.48-22.22-50.54-38.55-1.78-2.07-5.69 0.13-4.7 2.74z" fill="#FFCD2C" /><path d="M618.36 713.88c-14.05 16.33-30 30.87-50.53 38.55-20.27 7.58-42.24 9-63 2.49-4.61-1.45-9.76 4.45-6.66 8.67 7.18 9.79 10 21.39 13.43 32.82 3.24 10.65 7.53 20.82 14.15 29.84 12.55 17.08 31.13 30.09 52.1 34.21 44.74 8.8 90.25-24.1 91.52-70.6 0.77-28.07-16-52.86-36.59-70.52-5.55-4.76-13.34 2.75-8.12 8.12 15.14 15.58 30.59 32 32.59 54.77a60.87 60.87 0 0 1-23.43 53.84c-14.52 11.13-34 16.41-52.09 13A75 75 0 0 1 536 820.24c-6.81-9.1-10.71-19.31-13.93-30.12-3.36-11.32-6.64-22.85-13.73-32.49l-6.67 8.67a105.73 105.73 0 0 0 70.52-3.18c21.59-8.75 42.3-24.1 50.84-46.5 1-2.61-2.91-4.81-4.7-2.74z" fill="#FFCD2C" /></svg>