<?xml version="1.0" standalone="no"?><!DOCTYPE svg PUBLIC "-//W3C//DTD SVG 1.1//EN" "http://www.w3.org/Graphics/SVG/1.1/DTD/svg11.dtd"><svg class="icon" width="200px" height="200.00px" viewBox="0 0 1024 1024" version="1.1" xmlns="http://www.w3.org/2000/svg"><path d="M191.4 754.7m-81 0a81 81 0 1 0 162 0 81 81 0 1 0-162 0Z" fill="#FFAFAF" /><path d="M848.4 475.7m-81 0a81 81 0 1 0 162 0 81 81 0 1 0-162 0Z" fill="#FFAFAF" /><path d="M694.05 738.05m-196.65 0a196.65 196.65 0 1 0 393.3 0 196.65 196.65 0 1 0-393.3 0Z" fill="#FFAFAF" /><path d="M352.5 375.8m-269.1 0a269.1 269.1 0 1 0 538.2 0 269.1 269.1 0 1 0-538.2 0Z" fill="#FFAFAF" /><path d="M254.06 441.23m12 0l534.69 0q12 0 12 12l0 422.95q0 12-12 12l-534.69 0q-12 0-12-12l0-422.95q0-12 12-12Z" fill="#F1DDD5" /><path d="M901.61 314.88h-0.05c-24.74-5.71-35.34-28.71-38.28-36.55a1 1 0 0 0-1.79 0c-2.94 7.84-13.53 30.84-38.28 36.55h-0.09a1 1 0 0 0-0.23 1.81c10.48 4.92 36.93 19.95 39.32 47.18h0.35c2.38-27.4 28.76-42.3 39.28-47.18a1 1 0 0 0-0.23-1.81zM229.76 636.59c-24.76-5.72-35.39-28.73-38.33-36.59a1 1 0 0 0-1.8 0c-2.94 7.83-13.53 30.84-38.28 36.55h-0.09a1 1 0 0 0-0.22 1.81c10.48 4.92 36.92 19.94 39.31 47.18h0.35c2.38-27.41 28.77-42.31 39.28-47.19a1 1 0 0 0-0.22-1.76z" fill="#FFCD2C" /></svg>