<?xml version="1.0" standalone="no"?><!DOCTYPE svg PUBLIC "-//W3C//DTD SVG 1.1//EN" "http://www.w3.org/Graphics/SVG/1.1/DTD/svg11.dtd"><svg class="icon" width="200px" height="200.00px" viewBox="0 0 1024 1024" version="1.1" xmlns="http://www.w3.org/2000/svg"><path d="M227.4 746.48m-81 0a81 81 0 1 0 162 0 81 81 0 1 0-162 0Z" fill="#FFAFAF" /><path d="M884.4 467.48m-81 0a81 81 0 1 0 162 0 81 81 0 1 0-162 0Z" fill="#FFAFAF" /><path d="M721.05 738.83m-196.65 0a196.65 196.65 0 1 0 393.3 0 196.65 196.65 0 1 0-393.3 0Z" fill="#FFAFAF" /><path d="M379.5 376.58m-269.1 0a269.1 269.1 0 1 0 538.2 0 269.1 269.1 0 1 0-538.2 0Z" fill="#FFAFAF" /><path d="M430.112128 282.131621m-11.975525 0.766027l-87.131925 5.573488q-11.975525 0.766027-12.741552-11.209498l-2.202329-34.429635q-0.766027-11.975525 11.209498-12.741552l87.131925-5.573488q11.975525-0.766027 12.741552 11.209498l2.202329 34.429635q0.766027 11.975525-11.209498 12.741552Z" fill="#4A484A" /><path d="M382.72 495.17m-244.1 0a244.1 244.1 0 1 0 488.2 0 244.1 244.1 0 1 0-488.2 0Z" fill="#72C1E8" /><path d="M382.72 495.17m-196.89 0a196.89 196.89 0 1 0 393.78 0 196.89 196.89 0 1 0-393.78 0Z" fill="#F1DDD5" /><path d="M952.388602 586.604002m-8.424345 8.545783l-220.408953 223.586169q-8.424345 8.545783-16.970128 0.121438l-208.766357-205.799734q-8.545783-8.424345-0.121438-16.970128l220.408953-223.58617q8.424345-8.545783 16.970128-0.121437l208.766357 205.799734q8.545783 8.424345 0.121438 16.970128Z" fill="#AFADAD" /><path d="M886.034514 578.207732m-8.424345 8.545783l-163.390176 165.745461q-8.424345 8.545783-16.970128 0.121438l-139.509908-137.527436q-8.545783-8.424345-0.121438-16.970128l163.390176-165.745462q8.424345-8.545783 16.970129-0.121437l139.509907 137.527436q8.545783 8.424345 0.121438 16.970128Z" fill="#FF6E6E" /><path d="M922.72 423h-0.05c-24.75-5.71-35.34-28.72-38.28-36.55a1 1 0 0 0-1.8 0c-2.93 7.83-13.53 30.84-38.27 36.55h-0.09a1 1 0 0 0-0.23 1.81c10.48 4.92 36.92 19.94 39.32 47.18h0.35c2.37-27.41 28.76-42.31 39.27-47.19a1 1 0 0 0-0.22-1.8zM250.86 744.74h-0.05c-24.74-5.74-35.34-28.74-38.28-36.56a1 1 0 0 0-1.79 0C207.8 716 197.2 739 172.46 744.73h-0.09a1 1 0 0 0-0.23 1.81c10.48 4.92 36.93 20 39.32 47.18h0.35c2.37-27.4 28.76-42.3 39.28-47.18a1 1 0 0 0-0.23-1.8z" fill="#FFCD2C" /></svg>