<?xml version="1.0" standalone="no"?><!DOCTYPE svg PUBLIC "-//W3C//DTD SVG 1.1//EN" "http://www.w3.org/Graphics/SVG/1.1/DTD/svg11.dtd"><svg class="icon" width="200px" height="200.00px" viewBox="0 0 1024 1024" version="1.1" xmlns="http://www.w3.org/2000/svg"><path d="M173.4 759.33m-81 0a81 81 0 1 0 162 0 81 81 0 1 0-162 0Z" fill="#FFAFAF" /><path d="M830.4 480.33m-81 0a81 81 0 1 0 162 0 81 81 0 1 0-162 0Z" fill="#FFAFAF" /><path d="M714.75 742.68m-196.65 0a196.65 196.65 0 1 0 393.3 0 196.65 196.65 0 1 0-393.3 0Z" fill="#FFAFAF" /><path d="M373.2 380.43m-269.1 0a269.1 269.1 0 1 0 538.2 0 269.1 269.1 0 1 0-538.2 0Z" fill="#FFAFAF" /><path d="M276.04 173.63V329.4l186.92-62.3v-62.31l-186.92-93.46v62.3z" fill="#F1DDD5" /><path d="M439.59 173.64m12 0l162.92 0q12 0 12 12l0 194.08q0 12-12 12l-162.92 0q-12 0-12-12l0-194.08q0-12 12-12Z" fill="#4A484A" /><path d="M361.71 329.4m12 0l318.69 0q12 0 12 12l0 567.92q0 12-12 12l-318.69 0q-12 0-12-12l0-567.92q0-12 12-12Z" fill="#72C1E8" /><path d="M883.61 325.63h-0.05c-24.74-5.71-35.34-28.71-38.28-36.55a1 1 0 0 0-1.79 0c-2.94 7.84-13.53 30.84-38.28 36.55h-0.09a1 1 0 0 0-0.23 1.81c10.48 4.92 36.93 19.95 39.32 47.18h0.35c2.38-27.4 28.76-42.3 39.28-47.18a1 1 0 0 0-0.23-1.81zM211.76 647.33c-24.75-5.71-35.34-28.72-38.28-36.55a1 1 0 0 0-1.8 0c-2.94 7.83-13.53 30.84-38.28 36.55h-0.09a1 1 0 0 0-0.22 1.81c10.48 4.92 36.92 19.94 39.31 47.18h0.35c2.38-27.41 28.77-42.31 39.28-47.19a1 1 0 0 0-0.27-1.8z" fill="#FFCD2C" /></svg>