<?xml version="1.0" standalone="no"?><!DOCTYPE svg PUBLIC "-//W3C//DTD SVG 1.1//EN" "http://www.w3.org/Graphics/SVG/1.1/DTD/svg11.dtd"><svg class="icon" width="200px" height="200.00px" viewBox="0 0 1024 1024" version="1.1" xmlns="http://www.w3.org/2000/svg"><path d="M155.4 754.7m-81 0a81 81 0 1 0 162 0 81 81 0 1 0-162 0Z" fill="#FFAFAF" /><path d="M812.4 475.7m-81 0a81 81 0 1 0 162 0 81 81 0 1 0-162 0Z" fill="#FFAFAF" /><path d="M676.05 738.05m-196.65 0a196.65 196.65 0 1 0 393.3 0 196.65 196.65 0 1 0-393.3 0Z" fill="#FFAFAF" /><path d="M334.5 375.8m-269.1 0a269.1 269.1 0 1 0 538.2 0 269.1 269.1 0 1 0-538.2 0Z" fill="#FFAFAF" /><path d="M476.81 101.43m12 0l75.54 0q12 0 12 12l0 113.84q0 12-12 12l-75.54 0q-12 0-12-12l0-113.84q0-12 12-12Z" fill="#AFADAD" /><path d="M374.9 216.46m65.49 0l177.02 0q65.49 0 65.49 65.49l0 14.19q0 65.49-65.49 65.49l-177.02 0q-65.49 0-65.49-65.49l0-14.19q0-65.49 65.49-65.49Z" fill="#4A484A" /><path d="M396.41 291.46h265a43 43 0 0 1 43 43v493.26A121.78 121.78 0 0 1 582.62 949.5H475.19A121.78 121.78 0 0 1 353.4 827.72V334.46a43 43 0 0 1 43.01-43z" fill="#F1DDD5" /><path d="M353.4 422.48m12 0l324.98 0q12 0 12 12l0 324.98q0 12-12 12l-324.98 0q-12 0-12-12l0-324.98q0-12 12-12Z" fill="#FF6E6E" /><path d="M702.79 61.7m0 12l0 48.51q0 12-12 12l-201.97 0q-12 0-12-12l0-48.51q0-12 12-12l201.97 0q12 0 12 12Z" fill="#F1DDD5" /><path d="M899.1 369.08h-0.05c-24.72-5.83-35.2-28.88-38.1-36.73a1 1 0 0 0-1.8 0c-3 7.82-13.68 30.77-38.46 36.36h-0.09a1 1 0 0 0-0.23 1.81c10.46 5 36.82 20.12 39.09 47.37h0.34c2.51-27.39 29-42.16 39.51-47a1 1 0 0 0-0.21-1.81zM225.68 687.5h-0.05c-24.72-5.83-35.2-28.88-38.1-36.73a1 1 0 0 0-1.8 0c-3 7.82-13.68 30.77-38.46 36.36h-0.08a1 1 0 0 0-0.24 1.81c10.46 5 36.82 20.12 39.09 47.37h0.34c2.51-27.39 29-42.16 39.51-47a1 1 0 0 0-0.21-1.81z" fill="#FFCD2C" /></svg>